<?xml version="1.0" encoding="UTF-8"?>
<svg width="32px" height="43px" viewBox="0 0 32 43" version="1.1" xmlns="http://www.w3.org/2000/svg" xmlns:xlink="http://www.w3.org/1999/xlink">
    <title>icon-gottesdienst</title>
    <g id="Page-1" stroke="none" stroke-width="1" fill="none" fill-rule="evenodd">
        <g id="icon-gottesdienst" transform="translate(0.000000, -0.000000)">
            <g id="Group-10" transform="translate(-0.000000, -0.000000)" fill="#EA3080">
                <polygon id="Fill-1" points="0 0 3.19610918 32.4953809 12.78782 32.4953809 15.9839292 42.2442244 19.1811662 32.4953809 28.7706215 32.4953809 31.9678585 0"></polygon>
            </g>
            <path d="M21.2778947,17.7960276 C20.2409357,16.7590685 18.5607018,16.7590685 17.5237427,17.7960276 C16.4867836,18.8329866 16.4867836,20.5132205 17.5237427,21.5501796 C18.5607018,22.5871387 20.2409357,22.5871387 21.2778947,21.5501796 C22.3148538,20.5132205 22.3148538,18.8329866 21.2778947,17.7960276 M12.8316959,13.1039808 C14.9030409,11.0313492 17.7167251,10.1500626 20.4261988,10.4485422 L20.7182456,7.81240183 C17.2355556,7.42901002 13.6177778,8.56246031 10.9546199,11.2269048 C8.28888889,13.8913492 7.15672515,17.509127 7.54011696,20.9905305 L10.1749708,20.6984837 C9.87777778,17.98901 10.7590643,15.1753258 12.8316959,13.1039808 M19.9373099,14.8408229 L20.2306433,12.2046825 C18.037076,11.9640977 15.759883,12.6768463 14.0822222,14.3545071 C12.405848,16.0321679 11.6918129,18.3106474 11.9323977,20.5029281 L14.568538,20.2095948 C14.4128655,18.7905305 14.8734503,17.3174311 15.9592982,16.2315831 C17.0451462,15.1457352 18.5182456,14.6851504 19.9373099,14.8408229" id="Fill-8" fill="#FFFFFF"></path>
        </g>
    </g>
</svg>