<?xml version="1.0" encoding="UTF-8"?>
<svg width="25px" height="32px" viewBox="0 0 25 32" version="1.1" xmlns="http://www.w3.org/2000/svg" xmlns:xlink="http://www.w3.org/1999/xlink">
    <title>event_digital-gottesdienst</title>
    <g id="Page-1" stroke="none" stroke-width="1" fill="none" fill-rule="evenodd">
        <g id="event_digital-gottesdienst" fill-rule="nonzero">
            <polygon id="Fill-1" fill="#EA3080" points="0 0 2.42268414 24.615251 9.69330112 24.615251 12.1159853 32 14.5395243 24.615251 21.8084316 24.615251 24.2319706 0"></polygon>
            <path d="M17.1230984,15.8439579 L16.1332809,15.8439579 L16.1332809,12.9951157 C16.1332809,12.717221 16.354622,12.4923789 16.6273606,12.4923789 C16.9009283,12.4923789 17.1230984,12.717221 17.1230984,12.9951157 L17.1230984,15.8439579 Z M15.1426342,15.8439579 L14.1528166,15.8439579 L14.1528166,12.9951157 C14.1528166,12.717221 14.3749867,12.4923789 14.6485544,12.4923789 C14.9212931,12.4923789 15.1426342,12.717221 15.1426342,12.9951157 L15.1426342,15.8439579 Z M13.163828,15.8439579 L12.1731815,15.8439579 L12.1731815,12.9951157 C12.1731815,12.717221 12.3953515,12.4923789 12.6680902,12.4923789 C12.9416579,12.4923789 13.163828,12.717221 13.163828,12.9951157 L13.163828,15.8439579 Z M11.1833638,15.8439579 L10.1935462,15.8439579 L10.1935462,12.9951157 C10.1935462,12.717221 10.4148873,12.4923789 10.688455,12.4923789 C10.9611937,12.4923789 11.1833638,12.717221 11.1833638,12.9951157 L11.1833638,15.8439579 Z M16.7931592,10.1454316 L10.1935462,10.1454316 L10.1935462,8.46964211 L7.71900223,3.44143157 L5.2444582,8.46964211 L5.2444582,16.8494315 L7.0757037,16.8494315 L7.0757037,15.1576421 C7.0757037,14.7963789 7.36419324,14.5033263 7.71900223,14.5033263 C8.07381121,14.5033263 8.36230077,14.7963789 8.36230077,15.1576421 L8.36230077,16.8494315 L18.4428553,16.8494315 L18.4428553,11.8220632 L16.7931592,10.1454316 Z" id="Fill-2" fill="#FFFFFF"></path>
        </g>
    </g>
</svg>