<svg xmlns="http://www.w3.org/2000/svg" height="32" width="32" viewBox="0 0 32 32"><defs><style>.cls-1{fill:#0098c3;}.cls-2{fill:#fff;}</style></defs><polygon class="cls-1" points="3.69 0 6.15 24.61 13.54 24.61 16 32 18.46 24.61 25.85 24.61 28.31 0 3.69 0"/><polygon class="cls-2" points="19.68 10.97 16.79 10.97 16.79 9.85 15.67 6.5 14.55 9.85 14.55 11.41 16.03 12.29 16.33 12.48 16.33 12.83 16.33 14.32 20.14 14.32 20.14 11.98 19.68 10.97"/><polygon class="cls-2" points="15.71 12.83 13.92 11.76 12.14 12.83 12.14 15.32 15.71 15.32 15.71 12.83"/><circle class="cls-2" cx="10.21" cy="11.96" r="0.64"/><path class="cls-2" d="M10.86,13.57h0a.64.64,0,1,0-1.29,0h0v1.29h0a.64.64,0,1,0,1.29,0h0Z"/><circle class="cls-2" cx="7.64" cy="11.96" r="0.64"/><path class="cls-2" d="M8.29,13.57h0a.64.64,0,1,0-1.29,0H7v1.29H7a.64.64,0,1,0,1.29,0h0Z"/><circle class="cls-2" cx="24.36" cy="11.96" r="0.64"/><path class="cls-2" d="M25,13.57h0a.64.64,0,1,0-1.29,0h0v1.29h0a.64.64,0,1,0,1.29,0h0Z"/><circle class="cls-2" cx="21.79" cy="11.96" r="0.64"/><path class="cls-2" d="M22.43,13.57h0a.64.64,0,1,0-1.29,0h0v1.29h0a.64.64,0,1,0,1.29,0h0Z"/></svg>