<?xml version="1.0" encoding="UTF-8"?>
<svg width="42px" height="51px" viewBox="0 0 42 51" version="1.1" xmlns="http://www.w3.org/2000/svg" xmlns:xlink="http://www.w3.org/1999/xlink">
    <title>event_hybrid-gottesdienst</title>
    <g id="Page-1" stroke="none" stroke-width="1" fill="none" fill-rule="evenodd">
        <g id="event_hybrid-gottesdienst" fill-rule="nonzero">
            <g id="icon-gottesdienst" transform="translate(14.044305, 13.939497)">
                <polygon id="Fill-1" fill="#008DB5" points="0 -3.1865909e-24 2.79497774 28.4170098 11.1828697 28.4170098 13.9778474 36.9423133 16.7738113 28.4170098 25.1597307 28.4170098 27.9556947 -3.1865909e-24"></polygon>
                <path d="M19.754403,18.2910142 L18.6124802,18.2910142 L18.6124802,15.0021762 C18.6124802,14.6813614 18.8678348,14.421793 19.1824852,14.421793 C19.498092,14.421793 19.754403,14.6813614 19.754403,15.0021762 L19.754403,18.2910142 Z M17.4696011,18.2910142 L16.3276783,18.2910142 L16.3276783,15.0021762 C16.3276783,14.6813614 16.5839893,14.421793 16.8995961,14.421793 C17.2142465,14.421793 17.4696011,14.6813614 17.4696011,15.0021762 L17.4696011,18.2910142 Z M15.1867119,18.2910142 L14.0438328,18.2910142 L14.0438328,15.0021762 C14.0438328,14.6813614 14.3001438,14.421793 14.6147942,14.421793 C14.930401,14.421793 15.1867119,14.6813614 15.1867119,15.0021762 L15.1867119,18.2910142 Z M12.90191,18.2910142 L11.7599873,18.2910142 L11.7599873,15.0021762 C11.7599873,14.6813614 12.0153419,14.421793 12.3309487,14.421793 C12.6455991,14.421793 12.90191,14.6813614 12.90191,15.0021762 L12.90191,18.2910142 Z M19.373762,11.712366 L11.7599873,11.712366 L11.7599873,9.77775537 L8.9051804,3.97295136 L6.05037349,9.77775537 L6.05037349,19.4517806 L8.16302624,19.4517806 L8.16302624,17.4986989 C8.16302624,17.0816396 8.49584795,16.7433257 8.9051804,16.7433257 C9.31451284,16.7433257 9.64733456,17.0816396 9.64733456,17.4986989 L9.64733456,19.4517806 L21.2769666,19.4517806 L21.2769666,13.6479488 L19.373762,11.712366 Z" id="Fill-2" fill="#FFFFFF"></path>
            </g>
            <g id="flag-digital-on">
                <path d="M23.2461523,11.6235887 C23.2461523,18.0427538 18.0427538,23.2461523 11.6225635,23.2461523 C5.20339856,23.2461523 0,18.0427538 0,11.6235887 C0,5.20339856 5.20339856,0 11.6225635,0 C18.0427538,0 23.2461523,5.20339856 23.2461523,11.6235887" id="Fill-6" fill="#EA3080"></path>
                <path d="M14.8290709,12.3704752 C14.0028417,11.5442461 12.6640633,11.5442461 11.8378342,12.3704752 C11.011605,13.1967044 11.011605,14.5354827 11.8378342,15.3617118 C12.6640633,16.187941 14.0028417,16.187941 14.8290709,15.3617118 C15.6553,14.5354827 15.6553,13.1967044 14.8290709,12.3704752 M8.09930103,8.63194206 C9.74970916,6.98050883 11.9915989,6.27831655 14.1504558,6.51613934 L14.3831531,4.41571309 C11.6082123,4.11023382 8.72563603,5.01334535 6.60368272,7.13632375 C4.47967922,9.25930217 3.57759278,12.1418784 3.88307205,14.9157941 L5.9824732,14.6830969 C5.74567551,12.52424 6.44786779,10.2823502 8.09930103,8.63194206 M13.7609184,10.0158247 L13.9946408,7.91539841 C12.2468484,7.72370503 10.4324246,8.29160945 9.09569649,9.62833753 C7.75999351,10.9650656 7.191064,12.7805145 7.38275736,14.5272819 L9.48318361,14.2935595 C9.35914673,13.1628762 9.72613189,11.9891387 10.5913148,11.1239558 C11.4564977,10.2587729 12.6302351,9.89178776 13.7609184,10.0158247" id="Fill-8" fill="#FFFFFF"></path>
            </g>
        </g>
    </g>
</svg>