<svg xmlns="http://www.w3.org/2000/svg" height="32" width="32" viewBox="0 0 32 32"><defs><style>.cls-1{fill:#0098c3;}.cls-2{fill:#fff;}</style></defs><polygon class="cls-1" points="3.69 0 6.15 24.61 13.54 24.61 16 32 18.46 24.61 25.85 24.61 28.31 0 3.69 0"/><path class="cls-2" d="M21.79,12.63a1.07,1.07,0,1,0-1.07-1.07A1.07,1.07,0,0,0,21.79,12.63Zm3-.42a.52.52,0,0,0-.73.12l-.58.81-1.61-.22h-.16l-1.61.27a.52.52,0,0,0-.2.08l-.81.54a.52.52,0,1,0,.58.87l.71-.48.34-.06v1.92l-.4.49-.71-.35a.52.52,0,0,0-.47.93l1.07.54a.52.52,0,0,0,.63-.13l1-1.22.7.56-.21,1a.52.52,0,0,0,.41.61h.1a.52.52,0,0,0,.51-.42l.27-1.34a.52.52,0,0,0-.19-.51l-.59-.48V14.11l.78.1a.52.52,0,0,0,.49-.21l.77-1.06A.52.52,0,0,0,24.78,12.21Z"/><path class="cls-2" d="M20.89,7.73a1.16,1.16,0,0,0-1.14-1.16A1.16,1.16,0,0,0,18.3,5a1.59,1.59,0,0,0-3.07-.45A1.19,1.19,0,0,0,13.55,5.6s0,0,0,0a1.89,1.89,0,0,0-1.32,3.49A1.77,1.77,0,0,0,15,11.22a3.06,3.06,0,0,0,.52.23,31.55,31.55,0,0,1-.19,6.79h2.22a27.5,27.5,0,0,1-.22-6.62l.22,0a1.16,1.16,0,0,0,1.08-.75,1.52,1.52,0,0,0,1.87-2.31A1.16,1.16,0,0,0,20.89,7.73Z"/><path class="cls-2" d="M9.94,12.35a1.07,1.07,0,1,0-1.07-1.07A1.07,1.07,0,0,0,9.94,12.35Zm3-.42a.52.52,0,0,0-.73.12l-.58.81L10,12.64H9.85l-1.61.27A.52.52,0,0,0,8,13l-.81.54a.52.52,0,1,0,.58.87l.71-.48.34-.06v1.92l-.4.49-.71-.35a.52.52,0,0,0-.47.93l1.07.54A.52.52,0,0,0,9,17.25L10,16l.7.56-.21,1a.52.52,0,0,0,.41.61H11a.52.52,0,0,0,.51-.42l.27-1.34a.52.52,0,0,0-.19-.51L11,15.5V13.83l.78.1a.52.52,0,0,0,.49-.21L13,12.66A.52.52,0,0,0,12.93,11.93Z"/><path class="cls-2" d="M8.93,10.78a.51.51,0,0,0-.71-.23c-.34.15-.46,1.32-1,1.37a.87.87,0,0,0,.84.08C8.47,11.84,8.52,11,8.93,10.78Z"/></svg>