<?xml version="1.0" encoding="UTF-8"?>
<svg width="32px" height="43px" viewBox="0 0 32 43" version="1.1" xmlns="http://www.w3.org/2000/svg" xmlns:xlink="http://www.w3.org/1999/xlink">
    <title>event_digital-gottesdienst</title>
    <g id="Page-1" stroke="none" stroke-width="1" fill="none" fill-rule="evenodd">
        <g id="event_digital-gottesdienst" transform="translate(0.000000, -0.000000)" fill-rule="nonzero">
            <polygon id="Fill-1" fill="#EA3080" points="0 0 3.19932266 32.5061484 12.8006773 32.5061484 16 42.2582223 19.2004516 32.5061484 28.7995485 32.5061484 32 0"></polygon>
            <path d="M22.6122406,20.9230467 L21.3051178,20.9230467 L21.3051178,17.1609528 C21.3051178,16.7939735 21.5974141,16.4970539 21.9575844,16.4970539 C22.3188495,16.4970539 22.6122406,16.7939735 22.6122406,17.1609528 L22.6122406,20.9230467 Z M19.9969001,20.9230467 L18.6897772,20.9230467 L18.6897772,17.1609528 C18.6897772,16.7939735 18.9831683,16.4970539 19.3444334,16.4970539 C19.7046038,16.4970539 19.9969001,16.7939735 19.9969001,17.1609528 L19.9969001,20.9230467 Z M17.3837491,20.9230467 L16.0755315,20.9230467 L16.0755315,17.1609528 C16.0755315,16.7939735 16.3689225,16.4970539 16.7290929,16.4970539 C17.090358,16.4970539 17.3837491,16.7939735 17.3837491,17.1609528 L17.3837491,20.9230467 Z M14.7684086,20.9230467 L13.4612857,20.9230467 L13.4612857,17.1609528 C13.4612857,16.7939735 13.753582,16.4970539 14.1148471,16.4970539 C14.4750175,16.4970539 14.7684086,16.7939735 14.7684086,17.1609528 L14.7684086,20.9230467 Z M22.176533,13.397747 L13.4612857,13.397747 L13.4612857,11.1847506 L10.1934785,4.54464939 L6.92567127,11.1847506 L6.92567127,22.2508445 L9.34395812,22.2508445 L9.34395812,20.0167191 C9.34395812,19.5396459 9.7249286,19.1526496 10.1934785,19.1526496 C10.6620284,19.1526496 11.0429989,19.5396459 11.0429989,20.0167191 L11.0429989,22.2508445 L24.3550712,22.2508445 L24.3550712,15.6118554 L22.176533,13.397747 Z" id="Fill-2" fill="#FFFFFF"></path>
        </g>
    </g>
</svg>