<?xml version="1.0" encoding="UTF-8"?>
<svg width="25px" height="32px" viewBox="0 0 25 32" version="1.1" xmlns="http://www.w3.org/2000/svg" xmlns:xlink="http://www.w3.org/1999/xlink">
    <title>event_digital-freizeit</title>
    <defs>
        <polygon id="path-1" points="0 0 5.52274109 0 5.52274109 7.22082664 0 7.22082664"></polygon>
        <polygon id="path-3" points="0 0 8.62088088 0 8.62088088 13.2638587 0 13.2638587"></polygon>
        <polygon id="path-5" points="0 0 5.5226994 0 5.5226994 7.22082664 0 7.22082664"></polygon>
    </defs>
    <g id="Page-1" stroke="none" stroke-width="1" fill="none" fill-rule="evenodd">
        <g id="event_digital-freizeit">
            <polygon id="Fill-1" fill="#EA3080" fill-rule="nonzero" points="0 0 2.42268414 24.615251 9.69330112 24.615251 12.1159853 32 14.5395243 24.615251 21.8084316 24.615251 24.2319706 0"></polygon>
            <g id="Group-12" transform="translate(4.042723, 4.040000)">
                <g id="Fill-1-Clipped" transform="translate(10.648148, 6.297552)">
                    <mask id="mask-2" fill="white">
                        <use xlink:href="#path-1"></use>
                    </mask>
                    <g id="path-1"></g>
                    <path d="M5.32806155,1.54956444 C5.11783999,1.39873778 4.8258656,1.44632 4.67403891,1.65550222 L4.15028176,2.38270222 L2.70298715,2.18878222 C2.65716964,2.18249778 2.60955535,2.18339555 2.56373783,2.19147555 L1.11554485,2.43208 C1.0499629,2.44375111 0.987974493,2.46799111 0.933173142,2.5048 L0.209076648,2.98690666 C-0.00653521136,3.13055111 -0.06493009,3.42143111 0.0788111502,3.63599999 C0.169547807,3.77156444 0.317780961,3.84428444 0.468709263,3.84428444 C0.558547538,3.84428444 0.648385811,3.81914666 0.728341878,3.76617777 L1.36888878,3.33883555 L1.6752373,3.28766222 L1.6752373,5.00870222 L1.31139228,5.44502222 L0.678032443,5.12900444 C0.446249694,5.01319111 0.165055894,5.10656 0.0500629018,5.33818666 C-0.0658284729,5.56891555 0.0276033331,5.84991999 0.259386082,5.96573333 L1.22424916,6.44783999 C1.41919821,6.5448 1.65457449,6.49631999 1.79382382,6.32933333 L2.70658069,5.23404444 L3.33275347,5.73500444 L3.14678824,6.66151113 C3.0964788,6.91468442 3.26088284,7.16157335 3.51422678,7.21184885 C3.54567017,7.21813335 3.57621519,7.22082664 3.60676021,7.22082664 C3.82506721,7.22082664 4.02091465,7.06730664 4.06583378,6.84465778 L4.30660036,5.63894221 C4.34073891,5.46746666 4.27695374,5.29150222 4.14039955,5.18197333 L3.60586182,4.75463111 L3.60586182,3.25444444 L4.30390522,3.34781333 C4.47549632,3.37115556 4.64529066,3.29753778 4.74680791,3.15748444 L5.43407072,2.20314666 C5.5858974,1.99306666 5.53828312,1.70039111 5.32806155,1.54956444 M2.64099874,1.92932444 C3.17373972,1.92932444 3.60586182,1.49749333 3.60586182,0.964213335 C3.60586182,0.431831111 3.17373972,0 2.64099874,0 C2.10735939,0 1.6752373,0.431831111 1.6752373,0.964213335 C1.6752373,1.49749333 2.10735939,1.92932444 2.64099874,1.92932444" id="Fill-1" fill="#FFFFFF" fill-rule="nonzero" mask="url(#mask-2)"></path>
                </g>
                <g id="Fill-4-Clipped" transform="translate(3.859632, 0.000000)">
                    <mask id="mask-4" fill="white">
                        <use xlink:href="#path-3"></use>
                    </mask>
                    <g id="path-3"></g>
                    <path d="M8.62088088,3.82372533 C8.62088088,3.25363644 8.16180726,2.79038311 7.593131,2.78230311 C7.66410326,2.641352 7.70542884,2.48244533 7.70542884,2.31366311 C7.70542884,1.73728978 7.23826981,1.27134311 6.66240646,1.27134311 C6.53303933,1.27134311 6.40996091,1.29558311 6.2958663,1.33867644 C6.25094716,0.591725333 5.63285983,-0.000807999998 4.87462479,-0.000807999998 C4.25833422,-0.000807999998 3.73457708,0.390623111 3.53513611,0.938267558 C3.4003787,0.876320888 3.25034879,0.840409781 3.09133504,0.840409781 C2.50109757,0.840409781 2.02225957,1.31892533 2.02225957,1.90966311 C2.02225957,1.91953866 2.02315795,1.930312 2.02405633,1.94018756 C1.91984393,1.92043644 1.81293639,1.90966311 1.70243531,1.90966311 C0.762726953,1.90966311 0,2.67097866 0,3.610952 C0,4.23580533 0.337791913,4.77985866 0.839987872,5.07612533 C0.739369003,5.28530755 0.681872505,5.517832 0.681872505,5.76561866 C0.681872505,6.64633864 1.3960868,7.36096978 2.27829865,7.36096978 C2.68257089,7.36096978 3.0518062,7.20924535 3.333,6.96056086 C3.47943638,7.04315642 3.63395822,7.11138756 3.79566711,7.16615199 C3.83878949,7.73175203 4.05080781,10.9143742 3.62587277,13.2638587 L5.61938409,13.2638587 C5.17737978,10.5938675 5.35256442,8.08996537 5.42443503,7.32056978 C5.48732183,7.33224085 5.55290377,7.33942314 5.61938409,7.33942314 C6.06498194,7.33942314 6.44409945,7.05931642 6.59412937,6.66698756 C6.78278974,6.76574314 6.99750326,6.82320086 7.22659085,6.82320086 C7.97853716,6.82320086 8.58853908,6.21360977 8.58853908,5.461272 C8.58853908,5.13268533 8.47174931,4.831032 8.27769863,4.59491644 C8.48792021,4.40458755 8.62088088,4.12986755 8.62088088,3.82372533" id="Fill-4" fill="#FFFFFF" fill-rule="nonzero" mask="url(#mask-4)"></path>
                </g>
                <g id="Fill-7-Clipped" transform="translate(0.000000, 6.042314)">
                    <mask id="mask-6" fill="white">
                        <use xlink:href="#path-5"></use>
                    </mask>
                    <g id="path-5"></g>
                    <path d="M5.32785888,1.54956444 C5.11763732,1.39873778 4.82566293,1.44632 4.67383625,1.65550222 L4.15007911,2.38270222 L2.7027845,2.18878222 C2.65696698,2.18249778 2.6093527,2.18339555 2.56353517,2.19147555 L1.11534218,2.43208 C1.04976024,2.44375111 0.987771838,2.46799111 0.932970479,2.5048 L0.208873989,2.98690666 C-0.00673787062,3.13055111 -0.0651327494,3.42143111 0.0786084906,3.63599999 C0.169345148,3.77156444 0.317578302,3.84428444 0.468506603,3.84428444 C0.558344878,3.84428444 0.648183152,3.81914666 0.728139218,3.76617777 L1.36868612,3.33883555 L1.67503463,3.28766222 L1.67503463,5.00870222 L1.31118962,5.44502222 L0.677829784,5.12900444 C0.446047035,5.01319111 0.164853234,5.10656 0.0498602425,5.33818666 C-0.0660311323,5.56891555 0.0274006738,5.84991999 0.259183423,5.96573333 L1.2240465,6.44783999 C1.41899555,6.5448 1.65437184,6.49631999 1.79362116,6.32933333 L2.70637802,5.23404444 L3.33255081,5.73500444 L3.14658557,6.66151113 C3.09627615,6.91468442 3.26068019,7.16157335 3.51402412,7.21184885 C3.54546751,7.21813335 3.57601253,7.22082664 3.60655754,7.22082664 C3.82486456,7.22082664 4.02071199,7.06730664 4.06563113,6.84465778 L4.30639771,5.63894221 C4.34053625,5.46746666 4.27675107,5.29150222 4.14019689,5.18197333 L3.60565917,4.75463111 L3.60565917,3.25444444 L4.30370255,3.34781333 C4.47529367,3.37115556 4.645088,3.29753778 4.74660525,3.15748444 L5.43386805,2.20314666 C5.58569474,1.99306666 5.53808045,1.70039111 5.32785888,1.54956444 M2.64079609,1.92932444 C3.17353706,1.92932444 3.60565917,1.49749333 3.60565917,0.964213335 C3.60565917,0.431831111 3.17353706,0 2.64079609,0 C2.10715673,0 1.67503463,0.431831111 1.67503463,0.964213335 C1.67503463,1.49749333 2.10715673,1.92932444 2.64079609,1.92932444" id="Fill-7" fill="#FFFFFF" fill-rule="nonzero" mask="url(#mask-6)"></path>
                </g>
                <path d="M1.72983599,6.56230664 C1.5833996,6.31272444 1.36778773,6.23102666 1.09108585,6.35312443 C0.786534099,6.48779113 0.67962655,7.53370221 0.225943262,7.58308003 C0.367887736,7.69709781 0.672439487,7.78238662 0.977889617,7.65400443 C1.32107183,7.51035999 1.36239744,6.75532886 1.72983599,6.56230664" id="Fill-10" fill="#FFFFFF" fill-rule="nonzero"></path>
            </g>
        </g>
    </g>
</svg>