<?xml version="1.0" encoding="UTF-8"?>
<svg width="42px" height="51px" viewBox="0 0 42 51" version="1.1" xmlns="http://www.w3.org/2000/svg" xmlns:xlink="http://www.w3.org/1999/xlink">
    <title>event_hybrid-gemeindeleben</title>
    <defs>
        <polygon id="path-1" points="0 0 1.49934881 0 1.49934881 1.49946541 0 1.49946541"></polygon>
        <polygon id="path-3" points="0 0 1.49934881 0 1.49934881 2.99893081 0 2.99893081"></polygon>
        <polygon id="path-5" points="0 0 1.49946541 0 1.49946541 2.99869762 0 2.99869762"></polygon>
    </defs>
    <g id="Page-1" stroke="none" stroke-width="1" fill="none" fill-rule="evenodd">
        <g id="event_hybrid-gemeindeleben">
            <g id="icon-gottesdienst" transform="translate(14.044305, 13.939497)">
                <polygon id="Fill-1" fill="#008DB5" fill-rule="nonzero" points="0 -3.1865909e-24 2.79497774 28.4170098 11.1828697 28.4170098 13.9778474 36.9423133 16.7738113 28.4170098 25.1597307 28.4170098 27.9556947 -3.1865909e-24"></polygon>
                <g id="Group-23" transform="translate(3.497975, 8.161942)">
                    <polygon id="Fill-1" fill="#FFFFFF" fill-rule="nonzero" points="10.1098482 0 8.80626939 3.90957038 8.80626939 5.72268757 10.5284392 6.75459028 10.8840667 6.96913277 10.8840667 7.38305984 10.8829007 9.12388554 15.3229973 9.12388554 15.3229973 6.39080085 14.7808112 5.21314917 11.413427 5.21314917 11.413427 3.90957038"></polygon>
                    <polygon id="Fill-2" fill="#FFFFFF" fill-rule="nonzero" points="5.99727863 7.38352624 5.99611264 10.2915097 10.1505413 10.2915097 10.1505413 7.38352624 8.07390996 6.13708104"></polygon>
                    <g id="Group-22" transform="translate(0.000000, 5.621363)">
                        <path d="M4.49734683,0.749732703 C4.49734683,1.16365978 4.1615412,1.49946541 3.74761412,1.49946541 C3.33368705,1.49946541 2.99788142,1.16365978 2.99788142,0.749732703 C2.99788142,0.335805628 3.33368705,0 3.74761412,0 C4.1615412,0 4.49734683,0.335805628 4.49734683,0.749732703" id="Fill-3" fill="#FFFFFF" fill-rule="nonzero"></path>
                        <path d="M4.49734683,2.62546365 L4.49734683,2.62313167 C4.49734683,2.20920459 4.1615412,1.87339897 3.74761412,1.87339897 C3.33368705,1.87339897 2.99788142,2.20920459 2.99788142,2.62313167 L2.99788142,4.12259708 L2.99788142,4.12259708 C2.99904741,4.53652415 3.33485304,4.87232978 3.74761412,4.87232978 C4.16270719,4.87232978 4.49734683,4.53652415 4.49734683,4.12259708 C4.49734683,4.12143108 4.49734683,4.12026509 4.49734683,4.12026509 L4.49734683,2.62546365 Z" id="Fill-5" fill="#FFFFFF" fill-rule="nonzero"></path>
                        <g id="Fill-7-Clipped">
                            <mask id="mask-2" fill="white">
                                <use xlink:href="#path-1"></use>
                            </mask>
                            <g id="path-1"></g>
                            <path d="M1.49934881,0.749732703 C1.49934881,1.16365978 1.16354318,1.49946541 0.749616104,1.49946541 C0.335689028,1.49946541 -0.000116599176,1.16365978 -0.000116599176,0.749732703 C-0.000116599176,0.335805628 0.335689028,0 0.749616104,0 C1.16354318,0 1.49934881,0.335805628 1.49934881,0.749732703" id="Fill-7" fill="#FFFFFF" fill-rule="nonzero" mask="url(#mask-2)"></path>
                        </g>
                        <g id="Fill-10-Clipped" transform="translate(0.000000, 1.873399)">
                            <mask id="mask-4" fill="white">
                                <use xlink:href="#path-3"></use>
                            </mask>
                            <g id="path-3"></g>
                            <path d="M1.49934881,0.752064687 L1.49934881,0.749732703 C1.49934881,0.335805628 1.16354318,0 0.749616104,0 C0.335689028,0 -0.000116599176,0.335805628 -0.000116599176,0.749732703 L-0.000116599176,2.24919811 L-0.000116599176,2.24919811 C0.00104939259,2.66312519 0.33685502,2.99893081 0.749616104,2.99893081 C1.16470917,2.99893081 1.49934881,2.66312519 1.49934881,2.24919811 C1.49934881,2.24803212 1.49934881,2.24686613 1.49934881,2.24686613 L1.49934881,0.752064687 Z" id="Fill-10" fill="#FFFFFF" fill-rule="nonzero" mask="url(#mask-4)"></path>
                        </g>
                        <path d="M20.9876185,0.749732703 C20.9876185,1.16365978 20.6518129,1.49946541 20.2378858,1.49946541 C19.8239588,1.49946541 19.4881531,1.16365978 19.4881531,0.749732703 C19.4881531,0.335805628 19.8239588,0 20.2378858,0 C20.6518129,0 20.9876185,0.335805628 20.9876185,0.749732703" id="Fill-13" fill="#FFFFFF" fill-rule="nonzero"></path>
                        <path d="M20.9876185,2.62651304 L20.9876185,2.62418106 C20.9876185,2.21025399 20.6518129,1.87444836 20.2378858,1.87444836 C19.8239588,1.87444836 19.4881531,2.21025399 19.4881531,2.62418106 L19.4881531,4.12364647 L19.4881531,4.12364647 C19.4893191,4.53757354 19.8251247,4.87337917 20.2378858,4.87337917 C20.6529789,4.87337917 20.9876185,4.53757354 20.9876185,4.12364647 C20.9876185,4.12248048 20.9876185,4.12131448 20.9876185,4.12131448 L20.9876185,2.62651304 Z" id="Fill-15" fill="#FFFFFF" fill-rule="nonzero"></path>
                        <path d="M17.9897371,0.7501991 C17.9897371,1.16412618 17.6539314,1.4999318 17.2400044,1.4999318 C16.8260773,1.4999318 16.4902716,1.16412618 16.4902716,0.7501991 C16.4902716,0.336272024 16.8260773,0.000466396705 17.2400044,0.000466396705 C17.6539314,0.000466396705 17.9897371,0.336272024 17.9897371,0.7501991" id="Fill-17" fill="#FFFFFF" fill-rule="nonzero"></path>
                        <g id="Fill-19-Clipped" transform="translate(16.490272, 1.874915)">
                            <mask id="mask-6" fill="white">
                                <use xlink:href="#path-5"></use>
                            </mask>
                            <g id="path-5"></g>
                            <path d="M1.49946541,0.752064687 L1.49946541,0.749732703 C1.49946541,0.335805628 1.16365978,0 0.749732703,0 C0.335805628,0 0,0.335805628 0,0.749732703 L0,2.24919811 L0,2.24919811 C0.00116599176,2.66312519 0.336971619,2.99893081 0.749732703,2.99893081 C1.16482577,2.99893081 1.49946541,2.66312519 1.49946541,2.24919811 C1.49946541,2.24803212 1.49946541,2.24686613 1.49946541,2.24570013 L1.49946541,0.752064687 Z" id="Fill-19" fill="#FFFFFF" fill-rule="nonzero" mask="url(#mask-6)"></path>
                        </g>
                    </g>
                </g>
            </g>
            <g id="flag-digital-on" fill-rule="nonzero">
                <path d="M23.2461523,11.6235887 C23.2461523,18.0427538 18.0427538,23.2461523 11.6225635,23.2461523 C5.20339856,23.2461523 0,18.0427538 0,11.6235887 C0,5.20339856 5.20339856,0 11.6225635,0 C18.0427538,0 23.2461523,5.20339856 23.2461523,11.6235887" id="Fill-6" fill="#EA3080"></path>
                <path d="M14.8290709,12.3704752 C14.0028417,11.5442461 12.6640633,11.5442461 11.8378342,12.3704752 C11.011605,13.1967044 11.011605,14.5354827 11.8378342,15.3617118 C12.6640633,16.187941 14.0028417,16.187941 14.8290709,15.3617118 C15.6553,14.5354827 15.6553,13.1967044 14.8290709,12.3704752 M8.09930103,8.63194206 C9.74970916,6.98050883 11.9915989,6.27831655 14.1504558,6.51613934 L14.3831531,4.41571309 C11.6082123,4.11023382 8.72563603,5.01334535 6.60368272,7.13632375 C4.47967922,9.25930217 3.57759278,12.1418784 3.88307205,14.9157941 L5.9824732,14.6830969 C5.74567551,12.52424 6.44786779,10.2823502 8.09930103,8.63194206 M13.7609184,10.0158247 L13.9946408,7.91539841 C12.2468484,7.72370503 10.4324246,8.29160945 9.09569649,9.62833753 C7.75999351,10.9650656 7.191064,12.7805145 7.38275736,14.5272819 L9.48318361,14.2935595 C9.35914673,13.1628762 9.72613189,11.9891387 10.5913148,11.1239558 C11.4564977,10.2587729 12.6302351,9.89178776 13.7609184,10.0158247" id="Fill-8" fill="#FFFFFF"></path>
            </g>
        </g>
    </g>
</svg>