<svg id="event" xmlns="http://www.w3.org/2000/svg" height="42" width="45" viewBox="0 0 42 45"><defs><style>.cls-1{fill:#0098c3;}.cls-2,.cls-4{fill:#fff;}.cls-3{fill:#63b15a;}.cls-4{fill-rule:evenodd;}</style></defs><title>event_gemeindeleben_digi</title><polygon class="cls-1" points="13.692 13 16.154 37.615 23.539 37.615 26 45 28.462 37.615 35.846 37.615 38.308 13 13.692 13"/><polygon class="cls-2" points="29.676 23.971 26.788 23.971 26.788 22.853 25.67 19.5 24.553 22.853 24.553 24.407 26.029 25.293 26.334 25.476 26.334 25.832 26.334 27.324 30.142 27.324 30.142 24.981 29.676 23.971"/><polygon class="cls-2" points="25.706 25.832 23.924 24.763 22.143 25.832 22.143 28.325 25.706 28.325 25.706 25.832"/><path class="cls-2" d="M20.857,24.964a.643.643,0,1,1-.643-.643A.643.643,0,0,1,20.857,24.964Z"/><path class="cls-2" d="M20.857,26.572h0a.643.643,0,1,0-1.286,0h0v1.286h0a.643.643,0,0,0,1.286,0V26.572Z"/><path class="cls-2" d="M18.286,24.964a.643.643,0,1,1-.643-.643A.643.643,0,0,1,18.286,24.964Z"/><path class="cls-2" d="M18.286,26.572h0a.643.643,0,1,0-1.286,0h0v1.286h0a.643.643,0,0,0,1.286,0V26.572Z"/><path class="cls-2" d="M35,24.964a.643.643,0,1,1-.643-.643A.643.643,0,0,1,35,24.964Z"/><path class="cls-2" d="M35,26.573v0a.643.643,0,1,0-1.286,0h0v1.286h0a.643.643,0,0,0,1.286,0V26.573Z"/><path class="cls-2" d="M32.429,24.964a.643.643,0,1,1-.643-.643A.643.643,0,0,1,32.429,24.964Z"/><path class="cls-2" d="M32.429,26.574v0a.643.643,0,1,0-1.286,0h0v1.286h0a.643.643,0,0,0,1.286,0V26.574Z"/><circle class="cls-3" cx="12" cy="11" r="11"/><path class="cls-4" d="M14.182,9.662l.22-1.977a5.627,5.627,0,0,0-6.224,6.224l1.977-.22a3.64,3.64,0,0,1,4.027-4.027M8.853,8.36a6.947,6.947,0,0,1,5.7-1.992l.219-1.977a8.937,8.937,0,0,0-9.883,9.884l1.976-.219a6.952,6.952,0,0,1,1.993-5.7m6.334,3.519a1.991,1.991,0,1,0,0,2.815,1.989,1.989,0,0,0,0-2.815"/></svg>