<svg xmlns="http://www.w3.org/2000/svg" height="42" width="45" viewBox="0 0 42 45"><defs><style>.cls-1{fill:#0098c3;}.cls-2,.cls-4{fill:#fff;}.cls-3{fill:#63b15a;}.cls-4{fill-rule:evenodd;}</style></defs><title>event_digi</title><g id="event"><polygon class="cls-1" points="13.692 13 16.154 37.615 23.539 37.615 26 45 28.462 37.615 35.846 37.615 38.308 13 13.692 13"/><path class="cls-2" d="M19.535,17V33h12.93V17Zm6,11.37v.5H22.428a2.268,2.268,0,0,1,1.336-1.947c.806-.5,1.216-.793,1.216-1.451a.868.868,0,0,0-.92-.86c-.665,0-.947.612-.927,1.182h-.571a1.476,1.476,0,0,1,1.531-1.685,1.351,1.351,0,0,1,1.491,1.37,1.91,1.91,0,0,1-1.155,1.632c-.6.362-1.222.665-1.336,1.256Zm3.922-.611h-.645v1.114h-.537V27.759H26.188v-.551l2.169-3.1h.457v3.143h.645Zm2.356-7.689H20.185V17.65h11.63Zm-5.137,7.185h1.6V24.924h-.014Z"/></g><g id="digitale_Kirche" data-name="digitale Kirche"><circle class="cls-3" cx="12" cy="11" r="11"/><path class="cls-4" d="M14.182,9.662l.22-1.977a5.627,5.627,0,0,0-6.224,6.224l1.977-.22a3.64,3.64,0,0,1,4.027-4.027M8.853,8.36a6.947,6.947,0,0,1,5.7-1.992l.219-1.977a8.937,8.937,0,0,0-9.883,9.884l1.976-.219a6.952,6.952,0,0,1,1.993-5.7m6.334,3.519a1.991,1.991,0,1,0,0,2.815,1.989,1.989,0,0,0,0-2.815"/></g></svg>