<?xml version="1.0" encoding="UTF-8"?>
<svg width="42px" height="51px" viewBox="0 0 42 51" version="1.1" xmlns="http://www.w3.org/2000/svg" xmlns:xlink="http://www.w3.org/1999/xlink">
    <title>event_hybrid-freizeit</title>
    <defs>
        <polygon id="path-1" points="0 0 6.37142008 0 6.37142008 8.33606377 0 8.33606377"></polygon>
        <polygon id="path-3" points="0 0 9.94565063 0 9.94565063 15.3124257 0 15.3124257"></polygon>
        <polygon id="path-5" points="0 0 6.37137198 0 6.37137198 8.33606377 0 8.33606377"></polygon>
    </defs>
    <g id="Page-1" stroke="none" stroke-width="1" fill="none" fill-rule="evenodd">
        <g id="event_hybrid-freizeit">
            <g id="icon-gottesdienst" transform="translate(14.044305, 13.939497)">
                <polygon id="Fill-1" fill="#008DB5" fill-rule="nonzero" points="-3.1865909e-24 -3.1865909e-24 2.79497774 28.4170098 11.1828697 28.4170098 13.9778474 36.9423133 16.7738113 28.4170098 25.1597307 28.4170098 27.9556947 -3.1865909e-24"></polygon>
                <g id="Group-12" transform="translate(4.663967, 4.663967)">
                    <g id="Fill-1-Clipped" transform="translate(12.284448, 7.270192)">
                        <mask id="mask-2" fill="white">
                            <use xlink:href="#path-1"></use>
                        </mask>
                        <g id="path-1"></g>
                        <path d="M6.14682415,1.78889047 C5.90429787,1.61476904 5.5674558,1.6697002 5.39229793,1.91119005 L4.78805509,2.75070412 L3.11835489,2.5268337 C3.06549659,2.51957865 3.01056542,2.52061508 2.95770713,2.52994302 L1.28697049,2.80770816 C1.21131058,2.82118185 1.13979642,2.84916565 1.07657376,2.89165957 L0.241205433,3.4482263 C-0.00753947652,3.61405625 -0.0749078895,3.94986188 0.0909220501,4.19757035 C0.195602199,4.35407235 0.366614325,4.43802376 0.540735761,4.43802376 C0.644379473,4.43802376 0.748023186,4.40900352 0.840266089,4.34785373 L1.57924576,3.85450966 L1.93267082,3.79543274 L1.93267082,5.7822827 L1.51291378,6.28599115 L0.782225611,5.92116528 C0.514824833,5.7874649 0.190420014,5.89525435 0.0577560622,6.16265513 C-0.0759443266,6.42901947 0.0318451342,6.75342429 0.299245911,6.88712468 L1.41237938,7.44369141 C1.63728624,7.55562662 1.90883276,7.49965902 2.06948051,7.30688172 L3.12250063,6.04242842 L3.84489731,6.62076034 L3.63035482,7.69036345 C3.57231434,7.98263871 3.76198234,8.26765893 4.0542576,8.3256994 C4.09053291,8.33295447 4.12577177,8.33606377 4.16101063,8.33606377 C4.41286485,8.33606377 4.63880815,8.15883302 4.69063,7.90179662 L4.96839514,6.50986156 C5.00777976,6.31190207 4.93419272,6.1087604 4.77665428,5.98231507 L4.15997419,5.488971 L4.15997419,3.75708457 L4.96528584,3.86487403 C5.16324533,3.8918214 5.35913195,3.80683355 5.47624934,3.64514936 L6.26912374,2.54341669 C6.44428161,2.30089041 6.38935044,1.96301191 6.14682415,1.78889047 M3.04684072,2.22730337 C3.66144794,2.22730337 4.15997419,1.72877712 4.15997419,1.11313347 C4.15997419,0.498526256 3.66144794,0 3.04684072,0 C2.43119707,0 1.93267082,0.498526256 1.93267082,1.11313347 C1.93267082,1.72877712 2.43119707,2.22730337 3.04684072,2.22730337" id="Fill-1" fill="#FFFFFF" fill-rule="nonzero" mask="url(#mask-2)"></path>
                    </g>
                    <g id="Fill-4-Clipped" transform="translate(4.452741, 0.000000)">
                        <mask id="mask-4" fill="white">
                            <use xlink:href="#path-3"></use>
                        </mask>
                        <g id="path-3"></g>
                        <path d="M9.94565063,4.41428935 C9.94565063,3.75615177 9.41603126,3.22135022 8.75996656,3.21202229 C8.84184509,3.04930166 8.8895212,2.86585229 8.8895212,2.67100211 C8.8895212,2.00560948 8.3505739,1.46769861 7.6862177,1.46769861 C7.53697075,1.46769861 7.39497887,1.49568242 7.26335135,1.54543139 C7.2115295,0.683115708 6.49846075,-0.00093279341 5.62370782,-0.00093279341 C4.91271196,-0.00093279341 4.30846912,0.450953792 4.07838008,1.08318044 C3.9229145,1.01166627 3.74982951,0.97020879 3.56638014,0.97020879 C2.88544095,0.97020879 2.33301996,1.52262978 2.33301996,2.20460541 C2.33301996,2.21600621 2.3340564,2.22844346 2.33509284,2.23984427 C2.21486614,2.21704265 2.09153012,2.20460541 1.96404834,2.20460541 C0.879935117,2.20460541 0,3.08350408 0,4.16865375 C0,4.89001399 0.389700358,5.51809488 0.969068709,5.86011914 C0.852987752,6.10160899 0.786655776,6.3700462 0.786655776,6.65610284 C0.786655776,7.67284766 1.61062328,8.49785161 2.62840454,8.49785161 C3.09480125,8.49785161 3.52077691,8.32269374 3.84518173,8.03560065 C4.01412098,8.13095287 4.19238816,8.20972209 4.37894685,8.27294475 C4.42869582,8.92590014 4.67329498,12.6000697 4.18306023,15.3124257 L6.4829142,15.3124257 C5.97298714,12.2300617 6.17509238,9.33943856 6.25800734,8.45121194 C6.33055794,8.46468562 6.40621785,8.47297712 6.4829142,8.47297712 C6.99698701,8.47297712 7.43436348,8.14960873 7.60744847,7.69668572 C7.82510027,7.8106938 8.07280875,7.87702577 8.33710021,7.87702577 C9.20459808,7.87702577 9.90833889,7.17328497 9.90833889,6.30475066 C9.90833889,5.92541468 9.77360206,5.5771718 9.54973164,5.30458883 C9.79225793,5.08486417 9.94565063,4.76771441 9.94565063,4.41428935" id="Fill-4" fill="#FFFFFF" fill-rule="nonzero" mask="url(#mask-4)"></path>
                    </g>
                    <g id="Fill-7-Clipped" transform="translate(0.000000, 6.975533)">
                        <mask id="mask-6" fill="white">
                            <use xlink:href="#path-5"></use>
                        </mask>
                        <g id="path-5"></g>
                        <path d="M6.14659036,1.78889047 C5.90406407,1.61476904 5.56722201,1.6697002 5.39206412,1.91119005 L4.78782128,2.75070412 L3.11812108,2.5268337 C3.06526279,2.51957865 3.01033162,2.52061508 2.95747332,2.52994302 L1.28673669,2.80770816 C1.21107678,2.82118185 1.13956261,2.84916565 1.07633995,2.89165957 L0.240971631,3.4482263 C-0.00777327842,3.61405625 -0.0751416913,3.94986188 0.0906882482,4.19757035 C0.195368398,4.35407235 0.366380523,4.43802376 0.54050196,4.43802376 C0.644145671,4.43802376 0.747789383,4.40900352 0.840032287,4.34785373 L1.57901195,3.85450966 L1.93243701,3.79543274 L1.93243701,5.7822827 L1.51267998,6.28599115 L0.781991809,5.92116528 C0.514591031,5.7874649 0.190186212,5.89525435 0.0575222603,6.16265513 C-0.0761781285,6.42901947 0.0316113322,6.75342429 0.299012109,6.88712468 L1.41214558,7.44369141 C1.63705243,7.55562662 1.90859896,7.49965902 2.06924672,7.30688172 L3.12226683,6.04242842 L3.8446635,6.62076034 L3.63012102,7.69036345 C3.57208055,7.98263871 3.76174853,8.26765893 4.05402381,8.3256994 C4.0902991,8.33295447 4.12553796,8.33606377 4.16077682,8.33606377 C4.41263104,8.33606377 4.63857434,8.15883302 4.6903962,7.90179662 L4.96816135,6.50986156 C5.00754596,6.31190207 4.93395893,6.1087604 4.77642047,5.98231507 L4.1597404,5.488971 L4.1597404,3.75708457 L4.96505203,3.86487403 C5.16301153,3.8918214 5.35889814,3.80683355 5.47601553,3.64514936 L6.26888993,2.54341669 C6.44404781,2.30089041 6.38911665,1.96301191 6.14659036,1.78889047 M3.04660692,2.22730337 C3.66121413,2.22730337 4.1597404,1.72877712 4.1597404,1.11313347 C4.1597404,0.498526256 3.66121413,0 3.04660692,0 C2.43096327,0 1.93243701,0.498526256 1.93243701,1.11313347 C1.93243701,1.72877712 2.43096327,2.22730337 3.04660692,2.22730337" id="Fill-7" fill="#FFFFFF" fill-rule="nonzero" mask="url(#mask-6)"></path>
                    </g>
                    <path d="M1.99565968,7.57583714 C1.82672043,7.28770762 1.57797552,7.19339184 1.25875289,7.33434729 C0.9074007,7.48981287 0.784064683,8.69726211 0.260663937,8.75426615 C0.424421002,8.88589367 0.775773186,8.98435519 1.12816181,8.83614468 C1.52408079,8.67031475 1.5717569,7.79867112 1.99565968,7.57583714" id="Fill-10" fill="#FFFFFF" fill-rule="nonzero"></path>
                </g>
            </g>
            <g id="flag-digital-on" fill-rule="nonzero">
                <path d="M23.2461523,11.6235887 C23.2461523,18.0427538 18.0427538,23.2461523 11.6225635,23.2461523 C5.20339856,23.2461523 0,18.0427538 0,11.6235887 C0,5.20339856 5.20339856,0 11.6225635,0 C18.0427538,0 23.2461523,5.20339856 23.2461523,11.6235887" id="Fill-6" fill="#EA3080"></path>
                <path d="M14.8290709,12.3704752 C14.0028417,11.5442461 12.6640633,11.5442461 11.8378342,12.3704752 C11.011605,13.1967044 11.011605,14.5354827 11.8378342,15.3617118 C12.6640633,16.187941 14.0028417,16.187941 14.8290709,15.3617118 C15.6553,14.5354827 15.6553,13.1967044 14.8290709,12.3704752 M8.09930103,8.63194206 C9.74970916,6.98050883 11.9915989,6.27831655 14.1504558,6.51613934 L14.3831531,4.41571309 C11.6082123,4.11023382 8.72563603,5.01334535 6.60368272,7.13632375 C4.47967922,9.25930217 3.57759278,12.1418784 3.88307205,14.9157941 L5.9824732,14.6830969 C5.74567551,12.52424 6.44786779,10.2823502 8.09930103,8.63194206 M13.7609184,10.0158247 L13.9946408,7.91539841 C12.2468484,7.72370503 10.4324246,8.29160945 9.09569649,9.62833753 C7.75999351,10.9650656 7.191064,12.7805145 7.38275736,14.5272819 L9.48318361,14.2935595 C9.35914673,13.1628762 9.72613189,11.9891387 10.5913148,11.1239558 C11.4564977,10.2587729 12.6302351,9.89178776 13.7609184,10.0158247" id="Fill-8" fill="#FFFFFF"></path>
            </g>
        </g>
    </g>
</svg>