<?xml version="1.0" encoding="UTF-8"?>
<svg width="25px" height="32px" viewBox="0 0 25 32" version="1.1" xmlns="http://www.w3.org/2000/svg" xmlns:xlink="http://www.w3.org/1999/xlink">
    <title>event_digital-konzerte</title>
    <defs>
        <polygon id="path-1" points="0 0 14.1490229 0 14.1490229 12.5683389 0 12.5683389"></polygon>
    </defs>
    <g id="Page-1" stroke="none" stroke-width="1" fill="none" fill-rule="evenodd">
        <g id="event_digital-konzerte">
            <polygon id="Fill-1" fill="#EA3080" fill-rule="nonzero" points="0 0 2.42268414 24.615251 9.69330112 24.615251 12.1159853 32 14.5395243 24.615251 21.8084316 24.615251 24.2319706 0"></polygon>
            <g id="Fill-1-Clipped" transform="translate(4.042723, 5.050000)">
                <mask id="mask-2" fill="white">
                    <use xlink:href="#path-1"></use>
                </mask>
                <g id="path-1"></g>
                <path d="M5.66688608,2.591559 L5.76391142,1.570449 L13.1014525,1.047269 L13.0408116,2.130999 L5.66688608,2.591559 Z M4.71583565,0.523078999 L4.33177702,8.96869894 L0.00505340296,9.71508899 C0.00202136119,9.79285901 0,9.87062902 0,9.95041899 C0,10.029199 0.00202136119,12.175449 0.00505340296,12.254229 L4.71583565,12.568339 L5.5668287,3.64498899 L12.9821922,3.182409 L12.7477143,7.39410903 L8.38965957,8.16978904 C8.38763825,8.24755906 8.38460615,8.32633901 8.38460615,8.40511904 C8.38460615,8.48490901 8.38763825,10.630149 8.38965957,10.708929 L13.1014525,11.023039 L13.1014525,10.997789 L14.1495283,-0.000101 L4.71583565,0.523078999 Z" id="Fill-1" fill="#FFFFFF" fill-rule="nonzero" mask="url(#mask-2)"></path>
            </g>
        </g>
    </g>
</svg>