<?xml version="1.0" encoding="UTF-8"?>
<svg width="32px" height="43px" viewBox="0 0 32 43" version="1.1" xmlns="http://www.w3.org/2000/svg" xmlns:xlink="http://www.w3.org/1999/xlink">
    <title>event_digital-gremien</title>
    <defs>
        <polygon id="path-1" points="0 0 3.55957532 0 3.55957532 3.55557777 0 3.55557777"></polygon>
        <polygon id="path-3" points="0 0 3.55944185 0 3.55944185 3.55584452 0 3.55584452"></polygon>
    </defs>
    <g id="Page-1" stroke="none" stroke-width="1" fill="none" fill-rule="evenodd">
        <g id="event_digital-gremien" transform="translate(0.000000, -0.000000)">
            <polygon id="Fill-1" fill="#EA3080" fill-rule="nonzero" points="0 0 3.19932266 32.5061484 12.8006773 32.5061484 16 42.2582223 19.2004516 32.5061484 28.7995485 32.5061484 32 0"></polygon>
            <g id="Group-35" transform="translate(5.338696, 4.001325)">
                <path d="M6.22905661,12.4481234 C6.22905661,11.4664649 5.43225628,10.6702011 4.44993629,10.6702011 C3.46628161,10.6702011 2.66948129,11.4664649 2.66948129,12.4481234 C2.66948129,13.4311157 3.46628161,14.2260456 4.44993629,14.2260456 C5.43225628,14.2260456 6.22905661,13.4311157 6.22905661,12.4481234" id="Fill-1" fill="#FFFFFF" fill-rule="nonzero"></path>
                <path d="M10.6776582,12.4478566 C10.6776582,11.4661981 9.88085788,10.6699344 8.89853791,10.6699344 C7.91488322,10.6699344 7.1180829,11.4661981 7.1180829,12.4478566 C7.1180829,13.4308489 7.91488322,14.2257789 8.89853791,14.2257789 C9.88085788,14.2257789 10.6776582,13.4308489 10.6776582,12.4478566" id="Fill-3" fill="#FFFFFF" fill-rule="nonzero"></path>
                <path d="M15.1266602,12.4478566 C15.1266602,11.4661981 14.3298599,10.6699344 13.3475399,10.6699344 C12.3638852,10.6699344 11.5670849,11.4661981 11.5670849,12.4478566 C11.5670849,13.4308489 12.3638852,14.2257789 13.3475399,14.2257789 C14.3298599,14.2257789 15.1266602,13.4308489 15.1266602,12.4478566" id="Fill-5" fill="#FFFFFF" fill-rule="nonzero"></path>
                <path d="M10.6776582,6.22419507 C10.6776582,5.24253657 9.88085788,4.44627281 8.89853791,4.44627281 C7.91488322,4.44627281 7.1180829,5.24253657 7.1180829,6.22419507 C7.1180829,7.20718735 7.91488322,8.00211733 8.89853791,8.00211733 C9.88085788,8.00211733 10.6776582,7.20718735 10.6776582,6.22419507" id="Fill-7" fill="#FFFFFF" fill-rule="nonzero"></path>
                <path d="M15.1266602,6.22419507 C15.1266602,5.24253657 14.3298599,4.44627281 13.3475399,4.44627281 C12.3638852,4.44627281 11.5670849,5.24253657 11.5670849,6.22419507 C11.5670849,7.20718735 12.3638852,8.00211733 13.3475399,8.00211733 C14.3298599,8.00211733 15.1266602,7.20718735 15.1266602,6.22419507" id="Fill-9" fill="#FFFFFF" fill-rule="nonzero"></path>
                <g id="Fill-11-Clipped" transform="translate(9.342317, 0.000000)">
                    <mask id="mask-2" fill="white">
                        <use xlink:href="#path-1"></use>
                    </mask>
                    <g id="path-1"></g>
                    <path d="M3.55957532,1.77765551 C3.55957532,0.795997004 2.762775,-0.000266755028 1.780455,-0.000266755028 C0.796800325,-0.000266755028 0,0.795997004 0,1.77765551 C0,2.76064779 0.796800325,3.55557777 1.780455,3.55557777 C2.762775,3.55557777 3.55957532,2.76064779 3.55957532,1.77765551" id="Fill-11" fill="#FFFFFF" fill-rule="nonzero" mask="url(#mask-2)"></path>
                </g>
                <path d="M19.5751284,12.4478566 C19.5751284,11.4661981 18.778328,10.6699344 17.796008,10.6699344 C16.8123534,10.6699344 16.015553,11.4661981 16.015553,12.4478566 C16.015553,13.4308489 16.8123534,14.2257789 17.796008,14.2257789 C18.778328,14.2257789 19.5751284,13.4308489 19.5751284,12.4478566" id="Fill-14" fill="#FFFFFF" fill-rule="nonzero"></path>
                <path d="M6.22878967,21.3397353 C6.22878967,20.3580768 5.43198935,19.561813 4.44966935,19.561813 C3.46601468,19.561813 2.66921435,20.3580768 2.66921435,21.3397353 C2.66921435,22.3213938 3.46601468,23.1176576 4.44966935,23.1176576 C5.43198935,23.1176576 6.22878967,22.3213938 6.22878967,21.3397353" id="Fill-16" fill="#FFFFFF" fill-rule="nonzero"></path>
                <path d="M10.6776582,21.3394686 C10.6776582,20.3578101 9.88085788,19.5615463 8.89853791,19.5615463 C7.91488322,19.5615463 7.1180829,20.3578101 7.1180829,21.3394686 C7.1180829,22.3224608 7.91488322,23.1173908 8.89853791,23.1173908 C9.88085788,23.1173908 10.6776582,22.3224608 10.6776582,21.3394686" id="Fill-18" fill="#FFFFFF" fill-rule="nonzero"></path>
                <path d="M15.1263933,21.3394686 C15.1263933,20.3578101 14.3295929,19.5615463 13.347273,19.5615463 C12.3636183,19.5615463 11.566818,20.3578101 11.566818,21.3394686 C11.566818,22.3224608 12.3636183,23.1173908 13.347273,23.1173908 C14.3295929,23.1173908 15.1263933,22.3224608 15.1263933,21.3394686" id="Fill-20" fill="#FFFFFF" fill-rule="nonzero"></path>
                <path d="M19.5751284,21.3394686 C19.5751284,20.3578101 18.778328,19.5615463 17.796008,19.5615463 C16.8123534,19.5615463 16.015553,20.3578101 16.015553,21.3394686 C16.015553,22.3224608 16.8123534,23.1173908 17.796008,23.1173908 C18.778328,23.1173908 19.5751284,22.3224608 19.5751284,21.3394686" id="Fill-22" fill="#FFFFFF" fill-rule="nonzero"></path>
                <path d="M8.00844386,16.8937293 C8.00844386,15.9120708 7.21164354,15.115807 6.22932354,15.115807 C5.24566887,15.115807 4.44886854,15.9120708 4.44886854,16.8937293 C4.44886854,17.8753878 5.24566887,18.6716515 6.22932354,18.6716515 C7.21164354,18.6716515 8.00844386,17.8753878 8.00844386,16.8937293" id="Fill-24" fill="#FFFFFF" fill-rule="nonzero"></path>
                <g id="Fill-26-Clipped" transform="translate(0.000000, 15.115807)">
                    <mask id="mask-4" fill="white">
                        <use xlink:href="#path-3"></use>
                    </mask>
                    <g id="path-3"></g>
                    <path d="M3.55944185,1.77792226 C3.55944185,0.796263759 2.76264152,0 1.78032153,0 C0.796666858,0 -0.000133467391,0.796263759 -0.000133467391,1.77792226 C-0.000133467391,2.75958076 0.796666858,3.55584452 1.78032153,3.55584452 C2.76264152,3.55584452 3.55944185,2.75958076 3.55944185,1.77792226" id="Fill-26" fill="#FFFFFF" fill-rule="nonzero" mask="url(#mask-4)"></path>
                </g>
                <path d="M12.4574459,16.8937293 C12.4574459,15.9120708 11.6606456,15.115807 10.6783256,15.115807 C9.6946709,15.115807 8.89787056,15.9120708 8.89787056,16.8937293 C8.89787056,17.8753878 9.6946709,18.6716515 10.6783256,18.6716515 C11.6606456,18.6716515 12.4574459,17.8753878 12.4574459,16.8937293" id="Fill-29" fill="#FFFFFF" fill-rule="nonzero"></path>
                <path d="M16.9057805,16.8937293 C16.9057805,15.9120708 16.1089803,15.115807 15.1266602,15.115807 C14.1430055,15.115807 13.3462053,15.9120708 13.3462053,16.8937293 C13.3462053,17.8753878 14.1430055,18.6716515 15.1266602,18.6716515 C16.1089803,18.6716515 16.9057805,17.8753878 16.9057805,16.8937293" id="Fill-31" fill="#FFFFFF" fill-rule="nonzero"></path>
                <path d="M21.3547826,16.8937293 C21.3547826,15.9120708 20.5579823,15.115807 19.5756622,15.115807 C18.5920076,15.115807 17.7952073,15.9120708 17.7952073,16.8937293 C17.7952073,17.8753878 18.5920076,18.6716515 19.5756622,18.6716515 C20.5579823,18.6716515 21.3547826,17.8753878 21.3547826,16.8937293" id="Fill-33" fill="#FFFFFF" fill-rule="nonzero"></path>
            </g>
        </g>
    </g>
</svg>