<?xml version="1.0" encoding="UTF-8"?>
<svg width="42px" height="51px" viewBox="0 0 42 51" version="1.1" xmlns="http://www.w3.org/2000/svg" xmlns:xlink="http://www.w3.org/1999/xlink">
    <title>event_hybrid-bildung</title>
    <g id="Page-1" stroke="none" stroke-width="1" fill="none" fill-rule="evenodd">
        <g id="event_hybrid-bildung" fill-rule="nonzero">
            <g id="icon-gottesdienst" transform="translate(14.044305, 13.939497)">
                <polygon id="Fill-1" fill="#008DB5" points="-3.1865909e-24 0 2.79497774 28.4170098 11.1828697 28.4170098 13.9778474 36.9423133 16.7738113 28.4170098 25.1597307 28.4170098 27.9556947 0"></polygon>
                <g id="Group-3" transform="translate(8.161942, 4.663967)" fill="#FFFFFF">
                    <path d="M0,14.1978695 L1.29274894,14.5513177 L1.6791211,13.1394615 L1.0709965,13.2488852 L0.991591699,12.137218 L0.902503382,10.899665 L0,14.1978695 Z M8.80521809,11.8428391 L10.4165546,16.0735659 L11.6599176,15.5990738 L10.1367011,11.6007514 L8.80521809,11.8428391 Z M2.64456731,12.9632216 L2.08389193,17.2588278 L3.40278636,17.430226 L4.01768942,12.7124186 L2.64456731,12.9632216 Z" id="Fill-1"></path>
                    <polygon id="Fill-2" points="9.53002901 0 1.23513205 1.50869128 1.98850933 12.0656568 10.2843747 10.5579338"></polygon>
                </g>
            </g>
            <g id="flag-digital-on">
                <path d="M23.2461523,11.6235887 C23.2461523,18.0427538 18.0427538,23.2461523 11.6225635,23.2461523 C5.20339856,23.2461523 0,18.0427538 0,11.6235887 C0,5.20339856 5.20339856,0 11.6225635,0 C18.0427538,0 23.2461523,5.20339856 23.2461523,11.6235887" id="Fill-6" fill="#EA3080"></path>
                <path d="M14.8290709,12.3704752 C14.0028417,11.5442461 12.6640633,11.5442461 11.8378342,12.3704752 C11.011605,13.1967044 11.011605,14.5354827 11.8378342,15.3617118 C12.6640633,16.187941 14.0028417,16.187941 14.8290709,15.3617118 C15.6553,14.5354827 15.6553,13.1967044 14.8290709,12.3704752 M8.09930103,8.63194206 C9.74970916,6.98050883 11.9915989,6.27831655 14.1504558,6.51613934 L14.3831531,4.41571309 C11.6082123,4.11023382 8.72563603,5.01334535 6.60368272,7.13632375 C4.47967922,9.25930217 3.57759278,12.1418784 3.88307205,14.9157941 L5.9824732,14.6830969 C5.74567551,12.52424 6.44786779,10.2823502 8.09930103,8.63194206 M13.7609184,10.0158247 L13.9946408,7.91539841 C12.2468484,7.72370503 10.4324246,8.29160945 9.09569649,9.62833753 C7.75999351,10.9650656 7.191064,12.7805145 7.38275736,14.5272819 L9.48318361,14.2935595 C9.35914673,13.1628762 9.72613189,11.9891387 10.5913148,11.1239558 C11.4564977,10.2587729 12.6302351,9.89178776 13.7609184,10.0158247" id="Fill-8" fill="#FFFFFF"></path>
            </g>
        </g>
    </g>
</svg>