<?xml version="1.0" encoding="UTF-8"?>
<svg width="42px" height="51px" viewBox="0 0 42 51" version="1.1" xmlns="http://www.w3.org/2000/svg" xmlns:xlink="http://www.w3.org/1999/xlink">
    <title>event_hybrid-spiritualitaet</title>
    <defs>
        <polygon id="path-1" points="0 0 4.37211931 0 4.37211931 9.63050896 0 9.63050896"></polygon>
    </defs>
    <g id="Page-1" stroke="none" stroke-width="1" fill="none" fill-rule="evenodd">
        <g id="event_hybrid-spiritualitaet">
            <g id="icon-gottesdienst" transform="translate(14.044305, 13.939497)">
                <polygon id="Fill-1" fill="#008DB5" fill-rule="nonzero" points="0 -3.1865909e-24 2.79497774 28.4170098 11.1828697 28.4170098 13.9778474 36.9423133 16.7738113 28.4170098 25.1597307 28.4170098 27.9556947 -3.1865909e-24"></polygon>
                <g id="Group-6" transform="translate(11.659918, 4.663967)">
                    <path d="M4.06861166,4.35497923 C3.81092748,2.65846122 2.84781828,2.46490659 2.21002079,0 C-1.07807598,3.34639636 0.519332731,6.68929474 2.00830421,6.97379673 C1.28422333,6.64148908 1.471948,4.91465528 2.08642566,4.2185582 C2.79301667,4.89133544 3.19994779,6.58668747 2.56331629,6.95863884 C3.81325946,6.71144859 4.19220678,5.17467144 4.06861166,4.35497923" id="Fill-1" fill="#FFFFFF" fill-rule="nonzero"></path>
                    <g id="Fill-3-Clipped" transform="translate(0.000000, 7.859367)">
                        <mask id="mask-2" fill="white">
                            <use xlink:href="#path-1"></use>
                        </mask>
                        <g id="path-1"></g>
                        <path d="M2.18623456,0 C0.978267089,0 0,0.391773232 0,0.874493822 L0,0.874493822 L0,8.75543215 L0,8.75543215 C0,9.23931873 0.979433081,9.63109196 2.18623456,9.63109196 C3.39303603,9.63109196 4.37246911,9.23931873 4.37246911,8.75543215 L4.37246911,0.874493822 C4.37246911,0.391773232 3.39303603,0 2.18623456,0" id="Fill-3" fill="#FFFFFF" fill-rule="nonzero" mask="url(#mask-2)"></path>
                    </g>
                </g>
            </g>
            <g id="flag-digital-on" fill-rule="nonzero">
                <path d="M23.2461523,11.6235887 C23.2461523,18.0427538 18.0427538,23.2461523 11.6225635,23.2461523 C5.20339856,23.2461523 0,18.0427538 0,11.6235887 C0,5.20339856 5.20339856,0 11.6225635,0 C18.0427538,0 23.2461523,5.20339856 23.2461523,11.6235887" id="Fill-6" fill="#EA3080"></path>
                <path d="M14.8290709,12.3704752 C14.0028417,11.5442461 12.6640633,11.5442461 11.8378342,12.3704752 C11.011605,13.1967044 11.011605,14.5354827 11.8378342,15.3617118 C12.6640633,16.187941 14.0028417,16.187941 14.8290709,15.3617118 C15.6553,14.5354827 15.6553,13.1967044 14.8290709,12.3704752 M8.09930103,8.63194206 C9.74970916,6.98050883 11.9915989,6.27831655 14.1504558,6.51613934 L14.3831531,4.41571309 C11.6082123,4.11023382 8.72563603,5.01334535 6.60368272,7.13632375 C4.47967922,9.25930217 3.57759278,12.1418784 3.88307205,14.9157941 L5.9824732,14.6830969 C5.74567551,12.52424 6.44786779,10.2823502 8.09930103,8.63194206 M13.7609184,10.0158247 L13.9946408,7.91539841 C12.2468484,7.72370503 10.4324246,8.29160945 9.09569649,9.62833753 C7.75999351,10.9650656 7.191064,12.7805145 7.38275736,14.5272819 L9.48318361,14.2935595 C9.35914673,13.1628762 9.72613189,11.9891387 10.5913148,11.1239558 C11.4564977,10.2587729 12.6302351,9.89178776 13.7609184,10.0158247" id="Fill-8" fill="#FFFFFF"></path>
            </g>
        </g>
    </g>
</svg>