<svg xmlns="http://www.w3.org/2000/svg" height="32" width="32" viewBox="0 0 32 32"><defs><style>.cls-1{fill:#0098c3;}.cls-2{fill:#fff;}</style></defs><polygon class="cls-1" points="3.69 0 6.15 24.61 13.54 24.61 16 32 18.46 24.61 25.85 24.61 28.31 0 3.69 0"/><path class="cls-2" d="M17.61,8.24c-.22-1.46-1-1.62-1.59-3.74-2.82,2.87-1.45,5.74-.17,6-.62-.28-.46-1.77.07-2.36.61.58,1,2,.41,2.35C17.4,10.26,17.72,8.94,17.61,8.24Z"/><path class="cls-2" d="M16,11.24c-1,0-1.88.34-1.88.75h0v6.76h0c0,.41.84.75,1.88.75s1.87-.34,1.87-.75V12C17.87,11.58,17,11.24,16,11.24Z"/></svg>