<?xml version="1.0" encoding="UTF-8"?>
<svg width="25px" height="32px" viewBox="0 0 25 32" version="1.1" xmlns="http://www.w3.org/2000/svg" xmlns:xlink="http://www.w3.org/1999/xlink">
    <title>event_digital-gemeindeleben</title>
    <defs>
        <polygon id="path-1" points="0 0 1.29963417 0 1.29963417 1.29886 0 1.29886"></polygon>
        <polygon id="path-3" points="0 0 1.29963417 0 1.29963417 2.59772 0 2.59772"></polygon>
        <polygon id="path-5" points="0 0 1.29973524 0 1.29973524 2.597518 0 2.597518"></polygon>
    </defs>
    <g id="Page-1" stroke="none" stroke-width="1" fill="none" fill-rule="evenodd">
        <g id="event_digital-gemeindeleben">
            <polygon id="Fill-1" fill="#EA3080" fill-rule="nonzero" points="0 0 2.42268414 24.615251 9.69330112 24.615251 12.1159853 32 14.5395243 24.615251 21.8084316 24.615251 24.2319706 0"></polygon>
            <g id="Group-23" transform="translate(3.032042, 7.070000)">
                <polygon id="Fill-1" fill="#FFFFFF" fill-rule="nonzero" points="8.76320714 0 7.63326626 3.38652999 7.63326626 4.95708 9.12604144 5.85093 9.43429907 6.03676999 9.43429907 6.39532 9.43328837 7.90325001 13.2819601 7.90325001 13.2819601 5.53580999 12.8119936 4.51570999 9.89314801 4.51570999 9.89314801 3.38652999"></polygon>
                <polygon id="Fill-2" fill="#FFFFFF" fill-rule="nonzero" points="5.19843563 6.395724 5.19742495 8.91466399 8.79847987 8.91466399 8.79847987 6.395724 6.99845773 5.31603399"></polygon>
                <g id="Group-22" transform="translate(0.000000, 4.869311)">
                    <path d="M3.89829611,0.649429999 C3.89829611,1.00798 3.60722011,1.29886 3.24842849,1.29886 C2.88963688,1.29886 2.59856087,1.00798 2.59856087,0.649429999 C2.59856087,0.290879999 2.88963688,0 3.24842849,0 C3.60722011,0 3.89829611,0.290879999 3.89829611,0.649429999" id="Fill-3" fill="#FFFFFF" fill-rule="nonzero"></path>
                    <path d="M3.89829611,2.274217 L3.89829611,2.272197 C3.89829611,1.913647 3.60722011,1.622767 3.24842849,1.622767 C2.88963688,1.622767 2.59856087,1.913647 2.59856087,2.272197 L2.59856087,3.57105699 L2.59856087,3.57105699 C2.59957155,3.929607 2.89064756,4.220487 3.24842849,4.220487 C3.60823078,4.220487 3.89829611,3.929607 3.89829611,3.57105699 C3.89829611,3.570047 3.89829611,3.56903699 3.89829611,3.56903699 L3.89829611,2.274217 Z" id="Fill-5" fill="#FFFFFF" fill-rule="nonzero"></path>
                    <g id="Fill-7-Clipped">
                        <mask id="mask-2" fill="white">
                            <use xlink:href="#path-1"></use>
                        </mask>
                        <g id="path-1"></g>
                        <path d="M1.29963417,0.649429999 C1.29963417,1.00798 1.00855817,1.29886 0.649766554,1.29886 C0.290974943,1.29886 -0.000101068059,1.00798 -0.000101068059,0.649429999 C-0.000101068059,0.290879999 0.290974943,0 0.649766554,0 C1.00855817,0 1.29963417,0.290879999 1.29963417,0.649429999" id="Fill-7" fill="#FFFFFF" fill-rule="nonzero" mask="url(#mask-2)"></path>
                    </g>
                    <g id="Fill-10-Clipped" transform="translate(0.000000, 1.622767)">
                        <mask id="mask-4" fill="white">
                            <use xlink:href="#path-3"></use>
                        </mask>
                        <g id="path-3"></g>
                        <path d="M1.29963417,0.651449999 L1.29963417,0.649429999 C1.29963417,0.290879999 1.00855817,0 0.649766554,0 C0.290974943,0 -0.000101068059,0.290879999 -0.000101068059,0.649429999 L-0.000101068059,1.94829 L-0.000101068059,1.94829 C0.000909612533,2.30684 0.291985623,2.59772 0.649766554,2.59772 C1.00956884,2.59772 1.29963417,2.30684 1.29963417,1.94829 C1.29963417,1.94728 1.29963417,1.94627 1.29963417,1.94627 L1.29963417,0.651449999 Z" id="Fill-10" fill="#FFFFFF" fill-rule="nonzero" mask="url(#mask-4)"></path>
                    </g>
                    <path d="M18.1920485,0.649429999 C18.1920485,1.00798 17.9009725,1.29886 17.5421809,1.29886 C17.1833893,1.29886 16.8923133,1.00798 16.8923133,0.649429999 C16.8923133,0.290879999 17.1833893,0 17.5421809,0 C17.9009725,0 18.1920485,0.290879999 18.1920485,0.649429999" id="Fill-13" fill="#FFFFFF" fill-rule="nonzero"></path>
                    <path d="M18.1920485,2.275126 L18.1920485,2.273106 C18.1920485,1.914556 17.9009725,1.623676 17.5421809,1.623676 C17.1833893,1.623676 16.8923133,1.914556 16.8923133,2.273106 L16.8923133,3.571966 L16.8923133,3.571966 C16.893324,3.930516 17.1844,4.221396 17.5421809,4.221396 C17.9019832,4.221396 18.1920485,3.930516 18.1920485,3.571966 C18.1920485,3.570956 18.1920485,3.569946 18.1920485,3.569946 L18.1920485,2.275126 Z" id="Fill-15" fill="#FFFFFF" fill-rule="nonzero"></path>
                    <path d="M15.5934877,0.649833999 C15.5934877,1.008384 15.3024117,1.299264 14.9436201,1.299264 C14.5848284,1.299264 14.2937524,1.008384 14.2937524,0.649833999 C14.2937524,0.291283999 14.5848284,0.000404 14.9436201,0.000404 C15.3024117,0.000404 15.5934877,0.291283999 15.5934877,0.649833999" id="Fill-17" fill="#FFFFFF" fill-rule="nonzero"></path>
                    <g id="Fill-19-Clipped" transform="translate(14.293753, 1.624080)">
                        <mask id="mask-6" fill="white">
                            <use xlink:href="#path-5"></use>
                        </mask>
                        <g id="path-5"></g>
                        <path d="M1.29973524,0.651449999 L1.29973524,0.649429999 C1.29973524,0.290879999 1.00865923,0 0.649867619,0 C0.291076011,0 0,0.290879999 0,0.649429999 L0,1.94829 L0,1.94829 C0.00101068059,2.30684 0.292086691,2.59772 0.649867619,2.59772 C1.00966991,2.59772 1.29973524,2.30684 1.29973524,1.94829 C1.29973524,1.94728 1.29973524,1.94627 1.29973524,1.94526 L1.29973524,0.651449999 Z" id="Fill-19" fill="#FFFFFF" fill-rule="nonzero" mask="url(#mask-6)"></path>
                    </g>
                </g>
            </g>
        </g>
    </g>
</svg>