<?xml version="1.0" encoding="UTF-8"?>
<svg width="42px" height="51px" viewBox="0 0 42 51" version="1.1" xmlns="http://www.w3.org/2000/svg" xmlns:xlink="http://www.w3.org/1999/xlink">
    <title>event_hybrid-gremien</title>
    <defs>
        <polygon id="path-1" points="0 0 3.10970003 0 3.10970003 3.10830084 0 3.10830084"></polygon>
        <polygon id="path-3" points="0 0 3.10958343 0 3.10958343 3.10853404 0 3.10853404"></polygon>
    </defs>
    <g id="Page-1" stroke="none" stroke-width="1" fill="none" fill-rule="evenodd">
        <g id="event_hybrid-gremien">
            <g id="icon-gottesdienst" transform="translate(14.044305, 13.939497)">
                <polygon id="Fill-1" fill="#008DB5" fill-rule="nonzero" points="0 -3.1865909e-24 2.79497774 28.4170098 11.1828697 28.4170098 13.9778474 36.9423133 16.7738113 28.4170098 25.1597307 28.4170098 27.9556947 -3.1865909e-24"></polygon>
                <g id="Group-35" transform="translate(4.663967, 3.497975)">
                    <path d="M5.44180016,10.8822011 C5.44180016,10.0240312 4.74570307,9.3279341 3.88753314,9.3279341 C3.02819721,9.3279341 2.33210012,10.0240312 2.33210012,10.8822011 C2.33210012,11.7415371 3.02819721,12.4364681 3.88753314,12.4364681 C4.74570307,12.4364681 5.44180016,11.7415371 5.44180016,10.8822011" id="Fill-1" fill="#FFFFFF" fill-rule="nonzero"></path>
                    <path d="M9.3281673,10.8819679 C9.3281673,10.023798 8.63207022,9.3277009 7.77390028,9.3277009 C6.91456435,9.3277009 6.21846727,10.023798 6.21846727,10.8819679 C6.21846727,11.7413039 6.91456435,12.4362349 7.77390028,12.4362349 C8.63207022,12.4362349 9.3281673,11.7413039 9.3281673,10.8819679" id="Fill-3" fill="#FFFFFF" fill-rule="nonzero"></path>
                    <path d="M13.2148842,10.8819679 C13.2148842,10.023798 12.5187872,9.3277009 11.6606172,9.3277009 C10.8012813,9.3277009 10.1051842,10.023798 10.1051842,10.8819679 C10.1051842,11.7413039 10.8012813,12.4362349 11.6606172,12.4362349 C12.5187872,12.4362349 13.2148842,11.7413039 13.2148842,10.8819679" id="Fill-5" fill="#FFFFFF" fill-rule="nonzero"></path>
                    <path d="M9.3281673,5.44121716 C9.3281673,4.58304722 8.63207022,3.88695014 7.77390028,3.88695014 C6.91456435,3.88695014 6.21846727,4.58304722 6.21846727,5.44121716 C6.21846727,6.30055309 6.91456435,6.99548418 7.77390028,6.99548418 C8.63207022,6.99548418 9.3281673,6.30055309 9.3281673,5.44121716" id="Fill-7" fill="#FFFFFF" fill-rule="nonzero"></path>
                    <path d="M13.2148842,5.44121716 C13.2148842,4.58304722 12.5187872,3.88695014 11.6606172,3.88695014 C10.8012813,3.88695014 10.1051842,4.58304722 10.1051842,5.44121716 C10.1051842,6.30055309 10.8012813,6.99548418 11.6606172,6.99548418 C12.5187872,6.99548418 13.2148842,6.30055309 13.2148842,5.44121716" id="Fill-9" fill="#FFFFFF" fill-rule="nonzero"></path>
                    <g id="Fill-11-Clipped" transform="translate(8.161593, 0.000000)">
                        <mask id="mask-2" fill="white">
                            <use xlink:href="#path-1"></use>
                        </mask>
                        <g id="path-1"></g>
                        <path d="M3.10970003,1.55403382 C3.10970003,0.695863884 2.41360295,-0.000233198353 1.55543301,-0.000233198353 C0.696097082,-0.000233198353 0,0.695863884 0,1.55403382 C0,2.41336975 0.696097082,3.10830084 1.55543301,3.10830084 C2.41360295,3.10830084 3.10970003,2.41336975 3.10970003,1.55403382" id="Fill-11" fill="#FFFFFF" fill-rule="nonzero" mask="url(#mask-2)"></path>
                    </g>
                    <path d="M17.1011348,10.8819679 C17.1011348,10.023798 16.4050377,9.3277009 15.5468678,9.3277009 C14.6875318,9.3277009 13.9914348,10.023798 13.9914348,10.8819679 C13.9914348,11.7413039 14.6875318,12.4362349 15.5468678,12.4362349 C16.4050377,12.4362349 17.1011348,11.7413039 17.1011348,10.8819679" id="Fill-14" fill="#FFFFFF" fill-rule="nonzero"></path>
                    <path d="M5.44156696,18.6552852 C5.44156696,17.7971152 4.74546987,17.1010181 3.88729994,17.1010181 C3.02796401,17.1010181 2.33186693,17.7971152 2.33186693,18.6552852 C2.33186693,19.5134551 3.02796401,20.2095522 3.88729994,20.2095522 C4.74546987,20.2095522 5.44156696,19.5134551 5.44156696,18.6552852" id="Fill-16" fill="#FFFFFF" fill-rule="nonzero"></path>
                    <path d="M9.3281673,18.6550521 C9.3281673,17.7968821 8.63207022,17.100785 7.77390028,17.100785 C6.91456435,17.100785 6.21846727,17.7968821 6.21846727,18.6550521 C6.21846727,19.514388 6.91456435,20.2093191 7.77390028,20.2093191 C8.63207022,20.2093191 9.3281673,19.514388 9.3281673,18.6550521" id="Fill-18" fill="#FFFFFF" fill-rule="nonzero"></path>
                    <path d="M13.214651,18.6550521 C13.214651,17.7968821 12.518554,17.100785 11.660384,17.100785 C10.8010481,17.100785 10.104951,17.7968821 10.104951,18.6550521 C10.104951,19.514388 10.8010481,20.2093191 11.660384,20.2093191 C12.518554,20.2093191 13.214651,19.514388 13.214651,18.6550521" id="Fill-20" fill="#FFFFFF" fill-rule="nonzero"></path>
                    <path d="M17.1011348,18.6550521 C17.1011348,17.7968821 16.4050377,17.100785 15.5468678,17.100785 C14.6875318,17.100785 13.9914348,17.7968821 13.9914348,18.6550521 C13.9914348,19.514388 14.6875318,20.2093191 15.5468678,20.2093191 C16.4050377,20.2093191 17.1011348,19.514388 17.1011348,18.6550521" id="Fill-22" fill="#FFFFFF" fill-rule="nonzero"></path>
                    <path d="M6.99630037,14.7685683 C6.99630037,13.9103984 6.30020329,13.2143013 5.44203335,13.2143013 C4.58269742,13.2143013 3.88660034,13.9103984 3.88660034,14.7685683 C3.88660034,15.6267383 4.58269742,16.3228353 5.44203335,16.3228353 C6.30020329,16.3228353 6.99630037,15.6267383 6.99630037,14.7685683" id="Fill-24" fill="#FFFFFF" fill-rule="nonzero"></path>
                    <g id="Fill-26-Clipped" transform="translate(0.000000, 13.214301)">
                        <mask id="mask-4" fill="white">
                            <use xlink:href="#path-3"></use>
                        </mask>
                        <g id="path-3"></g>
                        <path d="M3.10958343,1.55426702 C3.10958343,0.696097082 2.41348635,0 1.55531641,0 C0.695980483,0 -0.000116599176,0.696097082 -0.000116599176,1.55426702 C-0.000116599176,2.41243696 0.695980483,3.10853404 1.55531641,3.10853404 C2.41348635,3.10853404 3.10958343,2.41243696 3.10958343,1.55426702" id="Fill-26" fill="#FFFFFF" fill-rule="nonzero" mask="url(#mask-4)"></path>
                    </g>
                    <path d="M10.8830174,14.7685683 C10.8830174,13.9103984 10.1869202,13.2143013 9.3287503,13.2143013 C8.46941437,13.2143013 7.77331728,13.9103984 7.77331728,14.7685683 C7.77331728,15.6267383 8.46941437,16.3228353 9.3287503,16.3228353 C10.1869202,16.3228353 10.8830174,15.6267383 10.8830174,14.7685683" id="Fill-29" fill="#FFFFFF" fill-rule="nonzero"></path>
                    <path d="M14.7691513,14.7685683 C14.7691513,13.9103984 14.0730542,13.2143013 13.2148842,13.2143013 C12.3555483,13.2143013 11.6594512,13.9103984 11.6594512,14.7685683 C11.6594512,15.6267383 12.3555483,16.3228353 13.2148842,16.3228353 C14.0730542,16.3228353 14.7691513,15.6267383 14.7691513,14.7685683" id="Fill-31" fill="#FFFFFF" fill-rule="nonzero"></path>
                    <path d="M18.6558682,14.7685683 C18.6558682,13.9103984 17.9597711,13.2143013 17.1016012,13.2143013 C16.2422653,13.2143013 15.5461682,13.9103984 15.5461682,14.7685683 C15.5461682,15.6267383 16.2422653,16.3228353 17.1016012,16.3228353 C17.9597711,16.3228353 18.6558682,15.6267383 18.6558682,14.7685683" id="Fill-33" fill="#FFFFFF" fill-rule="nonzero"></path>
                </g>
            </g>
            <g id="flag-digital-on" fill-rule="nonzero">
                <path d="M23.2461523,11.6235887 C23.2461523,18.0427538 18.0427538,23.2461523 11.6225635,23.2461523 C5.20339856,23.2461523 0,18.0427538 0,11.6235887 C0,5.20339856 5.20339856,0 11.6225635,0 C18.0427538,0 23.2461523,5.20339856 23.2461523,11.6235887" id="Fill-6" fill="#EA3080"></path>
                <path d="M14.8290709,12.3704752 C14.0028417,11.5442461 12.6640633,11.5442461 11.8378342,12.3704752 C11.011605,13.1967044 11.011605,14.5354827 11.8378342,15.3617118 C12.6640633,16.187941 14.0028417,16.187941 14.8290709,15.3617118 C15.6553,14.5354827 15.6553,13.1967044 14.8290709,12.3704752 M8.09930103,8.63194206 C9.74970916,6.98050883 11.9915989,6.27831655 14.1504558,6.51613934 L14.3831531,4.41571309 C11.6082123,4.11023382 8.72563603,5.01334535 6.60368272,7.13632375 C4.47967922,9.25930217 3.57759278,12.1418784 3.88307205,14.9157941 L5.9824732,14.6830969 C5.74567551,12.52424 6.44786779,10.2823502 8.09930103,8.63194206 M13.7609184,10.0158247 L13.9946408,7.91539841 C12.2468484,7.72370503 10.4324246,8.29160945 9.09569649,9.62833753 C7.75999351,10.9650656 7.191064,12.7805145 7.38275736,14.5272819 L9.48318361,14.2935595 C9.35914673,13.1628762 9.72613189,11.9891387 10.5913148,11.1239558 C11.4564977,10.2587729 12.6302351,9.89178776 13.7609184,10.0158247" id="Fill-8" fill="#FFFFFF"></path>
            </g>
        </g>
    </g>
</svg>