<?xml version="1.0" encoding="UTF-8"?>
<svg width="25px" height="32px" viewBox="0 0 25 32" version="1.1" xmlns="http://www.w3.org/2000/svg" xmlns:xlink="http://www.w3.org/1999/xlink">
    <title>event_digital-gremien</title>
    <defs>
        <polygon id="path-1" points="0 0 2.69548514 0 2.69548514 2.692458 0 2.692458"></polygon>
        <polygon id="path-3" points="0 0 2.69538407 0 2.69538407 2.69265999 0 2.69265999"></polygon>
    </defs>
    <g id="Page-1" stroke="none" stroke-width="1" fill="none" fill-rule="evenodd">
        <g id="event_digital-gremien">
            <polygon id="Fill-1" fill="#EA3080" fill-rule="nonzero" points="0 0 2.42268414 24.615251 9.69330112 24.615251 12.1159853 32 14.5395243 24.615251 21.8084316 24.615251 24.2319706 0"></polygon>
            <g id="Group-35" transform="translate(4.042723, 3.030000)">
                <path d="M4.71694739,9.42633 C4.71694739,8.68297001 4.11357108,8.07999998 3.36971017,8.07999998 C2.62483856,8.07999998 2.02146225,8.68297001 2.02146225,9.42633 C2.02146225,10.1707 2.62483856,10.77266 3.36971017,10.77266 C4.11357108,10.77266 4.71694739,10.1707 4.71694739,9.42633" id="Fill-1" fill="#FFFFFF" fill-rule="nonzero"></path>
                <path d="M8.08564686,9.42612797 C8.08564686,8.68276797 7.48227055,8.07979802 6.73840965,8.07979802 C5.99353804,8.07979802 5.39016173,8.68276797 5.39016173,9.42612797 C5.39016173,10.170498 5.99353804,10.772458 6.73840965,10.772458 C7.48227055,10.772458 8.08564686,10.170498 8.08564686,9.42612797" id="Fill-3" fill="#FFFFFF" fill-rule="nonzero"></path>
                <path d="M11.4546495,9.42612797 C11.4546495,8.68276797 10.8512732,8.07979802 10.1074123,8.07979802 C9.3625407,8.07979802 8.75916441,8.68276797 8.75916441,9.42612797 C8.75916441,10.170498 9.3625407,10.772458 10.1074123,10.772458 C10.8512732,10.772458 11.4546495,10.170498 11.4546495,9.42612797" id="Fill-5" fill="#FFFFFF" fill-rule="nonzero"></path>
                <path d="M8.08564686,4.713266 C8.08564686,3.969906 7.48227055,3.366936 6.73840965,3.366936 C5.99353804,3.366936 5.39016173,3.969906 5.39016173,4.713266 C5.39016173,5.457636 5.99353804,6.05959599 6.73840965,6.05959599 C7.48227055,6.05959599 8.08564686,5.457636 8.08564686,4.713266" id="Fill-7" fill="#FFFFFF" fill-rule="nonzero"></path>
                <path d="M11.4546495,4.713266 C11.4546495,3.969906 10.8512732,3.366936 10.1074123,3.366936 C9.3625407,3.366936 8.75916441,3.969906 8.75916441,4.713266 C8.75916441,5.457636 9.3625407,6.05959599 10.1074123,6.05959599 C10.8512732,6.05959599 11.4546495,5.457636 11.4546495,4.713266" id="Fill-9" fill="#FFFFFF" fill-rule="nonzero"></path>
                <g id="Fill-11-Clipped" transform="translate(7.074461, 0.000000)">
                    <mask id="mask-2" fill="white">
                        <use xlink:href="#path-1"></use>
                    </mask>
                    <g id="path-1"></g>
                    <path d="M2.69548514,1.346128 C2.69548514,0.602768 2.09210883,-0.000202 1.34824791,-0.000202 C0.603376314,-0.000202 0,0.602768 0,1.346128 C0,2.090498 0.603376314,2.692458 1.34824791,2.692458 C2.09210883,2.692458 2.69548514,2.090498 2.69548514,1.346128" id="Fill-11" fill="#FFFFFF" fill-rule="nonzero" mask="url(#mask-2)"></path>
                </g>
                <path d="M14.823248,9.42612797 C14.823248,8.68276797 14.2198716,8.07979802 13.4760107,8.07979802 C12.7311392,8.07979802 12.1277628,8.68276797 12.1277628,9.42612797 C12.1277628,10.170498 12.7311392,10.772458 13.4760107,10.772458 C14.2198716,10.772458 14.823248,10.170498 14.823248,9.42612797" id="Fill-14" fill="#FFFFFF" fill-rule="nonzero"></path>
                <path d="M4.71674525,16.1594949 C4.71674525,15.4161349 4.11336894,14.8131649 3.36950803,14.8131649 C2.62463643,14.8131649 2.02126011,15.4161349 2.02126011,16.1594949 C2.02126011,16.9028549 2.62463643,17.505825 3.36950803,17.505825 C4.11336894,17.505825 4.71674525,16.9028549 4.71674525,16.1594949" id="Fill-16" fill="#FFFFFF" fill-rule="nonzero"></path>
                <path d="M8.08564686,16.159293 C8.08564686,15.415933 7.48227055,14.812963 6.73840965,14.812963 C5.99353804,14.812963 5.39016173,15.415933 5.39016173,16.159293 C5.39016173,16.9036629 5.99353804,17.5056229 6.73840965,17.5056229 C7.48227055,17.5056229 8.08564686,16.9036629 8.08564686,16.159293" id="Fill-18" fill="#FFFFFF" fill-rule="nonzero"></path>
                <path d="M11.4544474,16.159293 C11.4544474,15.415933 10.8510711,14.812963 10.1072102,14.812963 C9.3623386,14.812963 8.7589623,15.415933 8.7589623,16.159293 C8.7589623,16.9036629 9.3623386,17.5056229 10.1072102,17.5056229 C10.8510711,17.5056229 11.4544474,16.9036629 11.4544474,16.159293" id="Fill-20" fill="#FFFFFF" fill-rule="nonzero"></path>
                <path d="M14.823248,16.159293 C14.823248,15.415933 14.2198716,14.812963 13.4760107,14.812963 C12.7311392,14.812963 12.1277628,15.415933 12.1277628,16.159293 C12.1277628,16.9036629 12.7311392,17.5056229 13.4760107,17.5056229 C14.2198716,17.5056229 14.823248,16.9036629 14.823248,16.159293" id="Fill-22" fill="#FFFFFF" fill-rule="nonzero"></path>
                <path d="M6.06438675,12.792761 C6.06438675,12.049401 5.46101044,11.446431 4.71714953,11.446431 C3.97227793,11.446431 3.36890161,12.049401 3.36890161,12.792761 C3.36890161,13.536121 3.97227793,14.1390909 4.71714953,14.1390909 C5.46101044,14.1390909 6.06438675,13.536121 6.06438675,12.792761" id="Fill-24" fill="#FFFFFF" fill-rule="nonzero"></path>
                <g id="Fill-26-Clipped" transform="translate(0.000000, 11.446431)">
                    <mask id="mask-4" fill="white">
                        <use xlink:href="#path-3"></use>
                    </mask>
                    <g id="path-3"></g>
                    <path d="M2.69538407,1.34633 C2.69538407,0.60297 2.09200775,0 1.34814684,0 C0.603275246,0 -0.000101068059,0.60297 -0.000101068059,1.34633 C-0.000101068059,2.08968999 0.603275246,2.69265999 1.34814684,2.69265999 C2.09200775,2.69265999 2.69538407,2.08968999 2.69538407,1.34633" id="Fill-26" fill="#FFFFFF" fill-rule="nonzero" mask="url(#mask-4)"></path>
                </g>
                <path d="M9.43338946,12.792761 C9.43338946,12.049401 8.83001316,11.446431 8.08615225,11.446431 C7.34128063,11.446431 6.7379043,12.049401 6.7379043,12.792761 C6.7379043,13.536121 7.34128063,14.1390909 8.08615225,14.1390909 C8.83001316,14.1390909 9.43338946,13.536121 9.43338946,12.792761" id="Fill-29" fill="#FFFFFF" fill-rule="nonzero"></path>
                <path d="M12.8018867,12.792761 C12.8018867,12.049401 12.1985105,11.446431 11.4546495,11.446431 C10.7097779,11.446431 10.1064017,12.049401 10.1064017,12.792761 C10.1064017,13.536121 10.7097779,14.1390909 11.4546495,14.1390909 C12.1985105,14.1390909 12.8018867,13.536121 12.8018867,12.792761" id="Fill-31" fill="#FFFFFF" fill-rule="nonzero"></path>
                <path d="M16.1708895,12.792761 C16.1708895,12.049401 15.5675132,11.446431 14.8236522,11.446431 C14.0787807,11.446431 13.4754044,12.049401 13.4754044,12.792761 C13.4754044,13.536121 14.0787807,14.1390909 14.8236522,14.1390909 C15.5675132,14.1390909 16.1708895,13.536121 16.1708895,12.792761" id="Fill-33" fill="#FFFFFF" fill-rule="nonzero"></path>
            </g>
        </g>
    </g>
</svg>