<svg xmlns="http://www.w3.org/2000/svg" height="32" width="32" viewBox="0 0 32 32"><defs><style>.cls-1{fill:#0098c3;}.cls-2{fill:#fff;}</style></defs><polygon class="cls-1" points="3.69 0 6.15 24.61 13.54 24.61 16 32 18.46 24.61 25.85 24.61 28.31 0 3.69 0"/><path class="cls-2" d="M9.54,4V20H22.46V4Zm6,11.37v.5H12.43a2.27,2.27,0,0,1,1.34-1.95c.81-.5,1.22-.79,1.22-1.45a.87.87,0,0,0-.92-.86c-.66,0-.95.61-.93,1.18h-.57a1.48,1.48,0,0,1,1.53-1.69,1.35,1.35,0,0,1,1.49,1.37,1.91,1.91,0,0,1-1.16,1.63c-.6.36-1.22.66-1.34,1.26Zm3.92-.61h-.64v1.11h-.54V14.76H16.19v-.55l2.17-3.1h.46v3.14h.64Zm2.36-7.69H10.18V4.65H21.82Zm-5.14,7.18h1.6V11.92h0Z"/></svg>