<?xml version="1.0" encoding="UTF-8"?>
<svg width="32px" height="43px" viewBox="0 0 32 43" version="1.1" xmlns="http://www.w3.org/2000/svg" xmlns:xlink="http://www.w3.org/1999/xlink">
    <title>event_digital-freizeit</title>
    <defs>
        <polygon id="path-1" points="0 0 7.29316315 0 7.29316315 9.53560304 0 9.53560304"></polygon>
        <polygon id="path-3" points="0 0 11.3844719 0 11.3844719 17.5158465 0 17.5158465"></polygon>
        <polygon id="path-5" points="0 0 7.29310809 0 7.29310809 9.53560304 0 9.53560304"></polygon>
    </defs>
    <g id="Page-1" stroke="none" stroke-width="1" fill="none" fill-rule="evenodd">
        <g id="event_digital-freizeit" transform="translate(0.000000, -0.000000)">
            <polygon id="Fill-1" fill="#EA3080" fill-rule="nonzero" points="0 0 3.19932266 32.5061484 12.8006773 32.5061484 16 42.2582223 19.2004516 32.5061484 28.7995485 32.5061484 32 0"></polygon>
            <g id="Group-12" transform="translate(5.338696, 5.335101)">
                <g id="Fill-1-Clipped" transform="translate(14.061619, 8.316355)">
                    <mask id="mask-2" fill="white">
                        <use xlink:href="#path-1"></use>
                    </mask>
                    <g id="path-1"></g>
                    <path d="M7.03607529,2.04630746 C6.75846312,1.84713037 6.37289066,1.909966 6.17239298,2.18620565 L5.48073529,3.14652375 L3.56948225,2.89043892 C3.50897704,2.88213988 3.44609907,2.88332546 3.38559385,2.89399566 L1.47315444,3.21173054 C1.38654893,3.22714305 1.30468893,3.25915366 1.23231994,3.30776235 L0.276100233,3.94441768 C-0.00863020045,4.13411015 -0.0857446931,4.51823739 0.104075597,4.8015905 C0.223899654,4.98061277 0.419651828,5.07664458 0.618963132,5.07664458 C0.737600813,5.07664458 0.856238492,5.04344839 0.961826031,4.9734993 L1.8077127,4.40916422 L2.21226719,4.34158628 L2.21226719,6.61433912 L1.73178458,7.19052998 L0.895388928,6.77320655 C0.589303711,6.62026701 0.21796777,6.74356711 0.0661115386,7.0494462 C-0.0869310701,7.35413973 0.0364521183,7.72522561 0.342537335,7.87816516 L1.61670603,8.51482049 C1.8741498,8.64286291 2.18498052,8.5788417 2.36886893,8.35832421 L3.57422776,6.91191917 L4.4011324,7.57347164 L4.1555524,8.79698807 C4.0891153,9.13132098 4.30622225,9.45735496 4.64078052,9.52374725 C4.6823037,9.53204636 4.72264052,9.53560304 4.76297733,9.53560304 C5.05126689,9.53560304 5.30989703,9.33286922 5.36921587,9.03884594 L5.68716486,7.4466148 C5.73224718,7.22016942 5.64801443,6.98779616 5.46768515,6.84315566 L4.76179095,6.27882057 L4.76179095,4.29771989 L5.68360573,4.42102 C5.9102037,4.45184503 6.13442892,4.35462764 6.2684895,4.16967748 L7.17606776,2.90940817 C7.37656544,2.63198294 7.31368747,2.24548455 7.03607529,2.04630746 M3.48762225,2.54780691 C4.19114371,2.54780691 4.76179095,1.97754394 4.76179095,1.27331067 C4.76179095,0.570262971 4.19114371,0 3.48762225,0 C2.78291443,0 2.21226719,0.570262971 2.21226719,1.27331067 C2.21226719,1.97754394 2.78291443,2.54780691 3.48762225,2.54780691" id="Fill-1" fill="#FFFFFF" fill-rule="nonzero" mask="url(#mask-2)"></path>
                </g>
                <g id="Fill-4-Clipped" transform="translate(5.096912, 0.000000)">
                    <mask id="mask-4" fill="white">
                        <use xlink:href="#path-3"></use>
                    </mask>
                    <g id="path-3"></g>
                    <path d="M11.3844719,5.04949485 C11.3844719,4.29665287 10.7782333,3.68489468 10.0272568,3.67422448 C10.1209806,3.48808875 10.1755539,3.27824146 10.1755539,3.05535282 C10.1755539,2.2942118 9.55863796,1.67889687 8.79817042,1.67889687 C8.62733213,1.67889687 8.46479853,1.71090747 8.31412868,1.76781521 C8.25480984,0.781414396 7.43858259,-0.00106702011 6.43728056,-0.00106702011 C5.62342607,-0.00106702011 4.93176839,0.515844946 4.66839274,1.23904747 C4.49043622,1.15724259 4.2923113,1.10981948 4.0823226,1.10981948 C3.30287304,1.10981948 2.6705342,1.7417325 2.6705342,2.52184276 C2.6705342,2.53488411 2.67172057,2.54911105 2.67290695,2.56215241 C2.53528724,2.53606969 2.3941084,2.52184276 2.24818405,2.52184276 C1.00723391,2.52184276 0,3.52721281 0,4.76851288 C0,5.5936751 0.44607768,6.31213531 1.10926232,6.70337602 C0.976388115,6.97961567 0.900459997,7.28668035 0.900459997,7.61389984 C0.900459997,8.77695174 1.84362957,9.72067179 3.00865159,9.72067179 C3.54252116,9.72067179 4.03012202,9.52030914 4.40145796,9.191904 C4.59483738,9.30097718 4.7988942,9.39108114 5.01244202,9.46340137 C5.06938811,10.2103155 5.34937303,14.4131891 4.7882168,17.5158465 L7.42078694,17.5158465 C6.83708955,13.9899378 7.06843303,10.6833611 7.16334317,9.66732078 C7.24638956,9.68273325 7.33299506,9.69221795 7.42078694,9.69221795 C8.00922984,9.69221795 8.50988085,9.32231758 8.70800577,8.80422008 C8.95714489,8.93463367 9.24068901,9.01051058 9.54321508,9.01051058 C10.5362124,9.01051058 11.3417623,8.20550322 11.3417623,7.21198894 C11.3417623,6.77806743 11.1875333,6.37971325 10.9312759,6.06790626 C11.2088881,5.81656375 11.3844719,5.45377691 11.3844719,5.04949485" id="Fill-4" fill="#FFFFFF" fill-rule="nonzero" mask="url(#mask-4)"></path>
                </g>
                <g id="Fill-7-Clipped" transform="translate(0.000000, 7.979295)">
                    <mask id="mask-6" fill="white">
                        <use xlink:href="#path-5"></use>
                    </mask>
                    <g id="path-5"></g>
                    <path d="M7.03580766,2.04630746 C6.75819549,1.84713037 6.37262303,1.909966 6.17212535,2.18620565 L5.48046767,3.14652375 L3.56921463,2.89043892 C3.50870941,2.88213988 3.44583145,2.88332546 3.38532622,2.89399566 L1.47288681,3.21173054 C1.3862813,3.22714305 1.30442131,3.25915366 1.23205231,3.30776235 L0.275832608,3.94441768 C-0.00889782608,4.13411015 -0.0860123188,4.51823739 0.103807971,4.8015905 C0.223632028,4.98061277 0.419384202,5.07664458 0.618695506,5.07664458 C0.737333187,5.07664458 0.855970866,5.04344839 0.961558405,4.9734993 L1.80744507,4.40916422 L2.21199956,4.34158628 L2.21199956,6.61433912 L1.73151695,7.19052998 L0.895121303,6.77320655 C0.589036086,6.62026701 0.217700144,6.74356711 0.0658439129,7.0494462 C-0.0871986958,7.35413973 0.0361844927,7.72522561 0.342269709,7.87816516 L1.61643841,8.51482049 C1.87388217,8.64286291 2.1847129,8.5788417 2.3686013,8.35832421 L3.57396013,6.91191917 L4.40086478,7.57347164 L4.15528477,8.79698807 C4.08884768,9.13132098 4.30595463,9.45735496 4.64051289,9.52374725 C4.68203607,9.53204636 4.72237289,9.53560304 4.7627097,9.53560304 C5.05099927,9.53560304 5.30962941,9.33286922 5.36894825,9.03884594 L5.68689724,7.4466148 C5.73197955,7.22016942 5.6477468,6.98779616 5.46741752,6.84315566 L4.76152333,6.27882057 L4.76152333,4.29771989 L5.6833381,4.42102 C5.90993608,4.45184503 6.13416129,4.35462764 6.26822187,4.16967748 L7.17580013,2.90940817 C7.37629781,2.63198294 7.31341984,2.24548455 7.03580766,2.04630746 M3.48735463,2.54780691 C4.19087608,2.54780691 4.76152333,1.97754394 4.76152333,1.27331067 C4.76152333,0.570262971 4.19087608,0 3.48735463,0 C2.7826468,0 2.21199956,0.570262971 2.21199956,1.27331067 C2.21199956,1.97754394 2.7826468,2.54780691 3.48735463,2.54780691" id="Fill-7" fill="#FFFFFF" fill-rule="nonzero" mask="url(#mask-6)"></path>
                </g>
                <path d="M2.28436855,8.66598165 C2.09098913,8.33639102 1.80625869,8.22850343 1.44085464,8.38974202 C1.0386729,8.56757875 0.897494057,9.94877696 0.298373768,10.0139838 C0.485821304,10.1645522 0.888003041,10.277182 1.29137115,10.1076444 C1.7445671,9.91795194 1.79914043,8.92088089 2.28436855,8.66598165" id="Fill-10" fill="#FFFFFF" fill-rule="nonzero"></path>
            </g>
        </g>
    </g>
</svg>