<svg xmlns="http://www.w3.org/2000/svg" height="32" width="32" viewBox="0 0 32 32"><defs><style>.cls-1{fill:#0098c3;}.cls-2{fill:#fff;}</style></defs><polygon class="cls-1" points="3.69 0 6.15 24.61 13.54 24.61 16 32 18.46 24.61 25.85 24.61 28.31 0 3.69 0"/><circle class="cls-2" cx="11.33" cy="12.67" r="1.33"/><circle class="cls-2" cx="14.67" cy="12.67" r="1.33"/><circle class="cls-2" cx="18" cy="12.67" r="1.33"/><circle class="cls-2" cx="14.67" cy="8" r="1.33"/><circle class="cls-2" cx="18" cy="8" r="1.33"/><circle class="cls-2" cx="16.33" cy="4.67" r="1.33"/><circle class="cls-2" cx="21.33" cy="12.67" r="1.33"/><circle class="cls-2" cx="11.33" cy="19.33" r="1.33"/><circle class="cls-2" cx="14.67" cy="19.33" r="1.33"/><circle class="cls-2" cx="18" cy="19.33" r="1.33"/><circle class="cls-2" cx="21.33" cy="19.33" r="1.33"/><circle class="cls-2" cx="12.67" cy="16" r="1.33"/><circle class="cls-2" cx="9.33" cy="16" r="1.33"/><circle class="cls-2" cx="16" cy="16" r="1.33"/><circle class="cls-2" cx="19.33" cy="16" r="1.33"/><circle class="cls-2" cx="22.67" cy="16" r="1.33"/></svg>