<?xml version="1.0" encoding="UTF-8"?>
<svg width="32px" height="43px" viewBox="0 0 32 43" version="1.1" xmlns="http://www.w3.org/2000/svg" xmlns:xlink="http://www.w3.org/1999/xlink">
    <title>event_digital-gemeindeleben</title>
    <defs>
        <polygon id="path-1" points="0 0 1.71625718 0 1.71625718 1.71523483 0 1.71523483"></polygon>
        <polygon id="path-3" points="0 0 1.71625718 0 1.71625718 3.43046966 0 3.43046966"></polygon>
        <polygon id="path-5" points="0 0 1.71639065 0 1.71639065 3.43020291 0 3.43020291"></polygon>
    </defs>
    <g id="Page-1" stroke="none" stroke-width="1" fill="none" fill-rule="evenodd">
        <g id="event_digital-gemeindeleben" transform="translate(0.000000, -0.000000)">
            <polygon id="Fill-1" fill="#EA3080" fill-rule="nonzero" points="0 0 3.19932266 32.5061484 12.8006773 32.5061484 16 42.2582223 19.2004516 32.5061484 28.7995485 32.5061484 32 0"></polygon>
            <g id="Group-23" transform="translate(4.004022, 9.336426)">
                <polygon id="Fill-1" fill="#FFFFFF" fill-rule="nonzero" points="11.5724236 0 10.0802582 4.47214804 10.0802582 6.54616839 12.0515715 7.72655939 12.4586471 7.97197401 12.4586471 8.44546419 12.4573124 10.4367905 17.5397507 10.4367905 17.5397507 7.31042154 16.9191273 5.96330865 13.064589 5.96330865 13.064589 4.47214804"></polygon>
                <polygon id="Fill-2" fill="#FFFFFF" fill-rule="nonzero" points="6.86489526 8.4459977 6.86356059 11.7724329 11.6190037 11.7724329 11.6190037 8.4459977 9.24194946 7.02019207"></polygon>
                <g id="Group-22" transform="translate(0.000000, 6.430263)">
                    <path d="M5.14797074,0.857617415 C5.14797074,1.33110759 4.76358466,1.71523483 4.28977542,1.71523483 C3.81596618,1.71523483 3.43158009,1.33110759 3.43158009,0.857617415 C3.43158009,0.38412724 3.81596618,0 4.28977542,0 C4.76358466,0 5.14797074,0.38412724 5.14797074,0.857617415" id="Fill-3" fill="#FFFFFF" fill-rule="nonzero"></path>
                    <path d="M5.14797074,3.00326148 L5.14797074,3.00059393 C5.14797074,2.52710376 4.76358466,2.14297652 4.28977542,2.14297652 C3.81596618,2.14297652 3.43158009,2.52710376 3.43158009,3.00059393 L3.43158009,4.71582876 L3.43158009,4.71582876 C3.43291477,5.18931894 3.81730085,5.57344618 4.28977542,5.57344618 C4.76491933,5.57344618 5.14797074,5.18931894 5.14797074,4.71582876 C5.14797074,4.71449499 5.14797074,4.71316121 5.14797074,4.71316121 L5.14797074,3.00326148 Z" id="Fill-5" fill="#FFFFFF" fill-rule="nonzero"></path>
                    <g id="Fill-7-Clipped">
                        <mask id="mask-2" fill="white">
                            <use xlink:href="#path-1"></use>
                        </mask>
                        <g id="path-1"></g>
                        <path d="M1.71625718,0.857617415 C1.71625718,1.33110759 1.3318711,1.71523483 0.858061859,1.71523483 C0.384252619,1.71523483 -0.000133467391,1.33110759 -0.000133467391,0.857617415 C-0.000133467391,0.38412724 0.384252619,0 0.858061859,0 C1.3318711,0 1.71625718,0.38412724 1.71625718,0.857617415" id="Fill-7" fill="#FFFFFF" fill-rule="nonzero" mask="url(#mask-2)"></path>
                    </g>
                    <g id="Fill-10-Clipped" transform="translate(0.000000, 2.142977)">
                        <mask id="mask-4" fill="white">
                            <use xlink:href="#path-3"></use>
                        </mask>
                        <g id="path-3"></g>
                        <path d="M1.71625718,0.860284965 L1.71625718,0.857617415 C1.71625718,0.38412724 1.3318711,0 0.858061859,0 C0.384252619,0 -0.000133467391,0.38412724 -0.000133467391,0.857617415 L-0.000133467391,2.57285225 L-0.000133467391,2.57285225 C0.00120120652,3.04634242 0.385587293,3.43046966 0.858061859,3.43046966 C1.33320577,3.43046966 1.71625718,3.04634242 1.71625718,2.57285225 C1.71625718,2.57151847 1.71625718,2.5701847 1.71625718,2.5701847 L1.71625718,0.860284965 Z" id="Fill-10" fill="#FFFFFF" fill-rule="nonzero" mask="url(#mask-4)"></path>
                    </g>
                    <path d="M24.0238634,0.857617415 C24.0238634,1.33110759 23.6394774,1.71523483 23.1656681,1.71523483 C22.6918589,1.71523483 22.3074728,1.33110759 22.3074728,0.857617415 C22.3074728,0.38412724 22.6918589,0 23.1656681,0 C23.6394774,0 24.0238634,0.38412724 24.0238634,0.857617415" id="Fill-13" fill="#FFFFFF" fill-rule="nonzero"></path>
                    <path d="M24.0238634,3.00446188 L24.0238634,3.00179433 C24.0238634,2.52830416 23.6394774,2.14417692 23.1656681,2.14417692 C22.6918589,2.14417692 22.3074728,2.52830416 22.3074728,3.00179433 L22.3074728,4.71702916 L22.3074728,4.71702916 C22.3088075,5.19051934 22.6931936,5.57464658 23.1656681,5.57464658 C23.6408121,5.57464658 24.0238634,5.19051934 24.0238634,4.71702916 C24.0238634,4.71569539 24.0238634,4.71436161 24.0238634,4.71436161 L24.0238634,3.00446188 Z" id="Fill-15" fill="#FFFFFF" fill-rule="nonzero"></path>
                    <path d="M20.5922834,0.858150925 C20.5922834,1.3316411 20.2078973,1.71576834 19.7340881,1.71576834 C19.2602788,1.71576834 18.8758927,1.3316411 18.8758927,0.858150925 C18.8758927,0.38466075 19.2602788,0.000533510056 19.7340881,0.000533510056 C20.2078973,0.000533510056 20.5922834,0.38466075 20.5922834,0.858150925" id="Fill-17" fill="#FFFFFF" fill-rule="nonzero"></path>
                    <g id="Fill-19-Clipped" transform="translate(18.875893, 2.144710)">
                        <mask id="mask-6" fill="white">
                            <use xlink:href="#path-5"></use>
                        </mask>
                        <g id="path-5"></g>
                        <path d="M1.71639065,0.860284965 L1.71639065,0.857617415 C1.71639065,0.38412724 1.33200456,0 0.858195322,0 C0.384386087,0 0,0.38412724 0,0.857617415 L0,2.57285225 L0,2.57285225 C0.00133467391,3.04634242 0.38572076,3.43046966 0.858195322,3.43046966 C1.33333923,3.43046966 1.71639065,3.04634242 1.71639065,2.57285225 C1.71639065,2.57151847 1.71639065,2.5701847 1.71639065,2.56885092 L1.71639065,0.860284965 Z" id="Fill-19" fill="#FFFFFF" fill-rule="nonzero" mask="url(#mask-6)"></path>
                    </g>
                </g>
            </g>
        </g>
    </g>
</svg>