<svg id="event" xmlns="http://www.w3.org/2000/svg" height="42" width="45" viewBox="0 0 42 45"><defs><style>.cls-1{fill:#0098c3;}.cls-2,.cls-4{fill:#fff;}.cls-3{fill:#63b15a;}.cls-4{fill-rule:evenodd;}</style></defs><title>event_spiritualitaet_digi</title><polygon class="cls-1" points="13.692 13 16.154 37.615 23.539 37.615 26 45 28.462 37.615 35.846 37.615 38.308 13 13.692 13"/><path class="cls-2" d="M27.615,21.235c-.221-1.455-1.048-1.621-1.594-3.735-2.82,2.87-1.45,5.737-.174,5.981-.621-.285-.46-1.766.067-2.363.606.577.956,2.031.409,2.35C27.4,23.256,27.721,21.938,27.615,21.235Z"/><path class="cls-2" d="M26,24.24c-1.035,0-1.875.336-1.875.751h0V31.75h0c0,.414.84.75,1.875.75s1.875-.336,1.875-.75V24.991C27.875,24.576,27.036,24.24,26,24.24Z"/><circle class="cls-3" cx="12" cy="11" r="11"/><path class="cls-4" d="M14.182,9.662l.22-1.977a5.627,5.627,0,0,0-6.224,6.224l1.977-.22a3.64,3.64,0,0,1,4.027-4.027M8.853,8.36a6.947,6.947,0,0,1,5.7-1.992l.219-1.977a8.937,8.937,0,0,0-9.883,9.884l1.976-.219a6.952,6.952,0,0,1,1.993-5.7m6.334,3.519a1.991,1.991,0,1,0,0,2.815,1.989,1.989,0,0,0,0-2.815"/></svg>