<svg id="event" xmlns="http://www.w3.org/2000/svg" height="42" width="45" viewBox="0 0 42 45"><defs><style>.cls-1{fill:#0098c3;}.cls-2,.cls-4{fill:#fff;}.cls-3{fill:#63b15a;}.cls-4{fill-rule:evenodd;}</style></defs><title>event_freizeit_digi</title><polygon class="cls-1" points="13.692 13 16.154 37.615 23.539 37.615 26 45 28.462 37.615 35.846 37.615 38.308 13 13.692 13"/><path class="cls-2" d="M31.792,25.635a1.075,1.075,0,1,0-1.075-1.075A1.075,1.075,0,0,0,31.792,25.635Zm2.991-.423a.52.52,0,0,0-.727.118l-.584.81-1.611-.216a.5.5,0,0,0-.155,0l-1.612.268a.519.519,0,0,0-.2.081l-.806.537a.521.521,0,0,0,.29.955.512.512,0,0,0,.288-.088l.713-.475.341-.057v1.917l-.4.486-.706-.353a.521.521,0,0,0-.466.933l1.075.537a.522.522,0,0,0,.633-.132l1.016-1.22.7.557-.206,1.033a.52.52,0,0,0,.409.613.5.5,0,0,0,.1.01.521.521,0,0,0,.511-.419l.268-1.343a.519.519,0,0,0-.185-.509l-.594-.476V27.111l.776.1A.524.524,0,0,0,34.136,27l.766-1.064A.521.521,0,0,0,34.783,25.212Z"/><path class="cls-2" d="M30.892,20.73a1.161,1.161,0,0,0-1.144-1.16,1.145,1.145,0,0,0,.125-.522,1.161,1.161,0,0,0-1.161-1.161,1.149,1.149,0,0,0-.407.075,1.586,1.586,0,0,0-3.074-.446,1.178,1.178,0,0,0-.494-.108,1.19,1.19,0,0,0-1.19,1.19c0,.012,0,.023,0,.035a1.831,1.831,0,0,0-.357-.035,1.894,1.894,0,0,0-.961,3.527,1.775,1.775,0,0,0,2.775,2.1,2.936,2.936,0,0,0,.515.229,31.541,31.541,0,0,1-.189,6.792h2.219a27.517,27.517,0,0,1-.217-6.62,1.109,1.109,0,0,0,.217.021,1.161,1.161,0,0,0,1.085-.749A1.516,1.516,0,0,0,30.51,21.59,1.16,1.16,0,0,0,30.892,20.73Z"/><path class="cls-2" d="M19.939,25.35a1.075,1.075,0,1,0-1.074-1.074A1.074,1.074,0,0,0,19.939,25.35Zm2.991-.423a.521.521,0,0,0-.727.119l-.583.81-1.611-.216a.536.536,0,0,0-.155,0l-1.612.269a.522.522,0,0,0-.2.08l-.806.538a.521.521,0,1,0,.579.867l.712-.475.342-.057v1.917l-.4.486-.705-.353a.522.522,0,1,0-.467.933l1.075.537A.52.52,0,0,0,19,30.251l1.017-1.219.7.557L20.5,30.621a.521.521,0,0,0,.409.614.514.514,0,0,0,.1.01.52.52,0,0,0,.51-.419l.269-1.344a.522.522,0,0,0-.186-.509l-.594-.475V26.827l.777.1a.522.522,0,0,0,.492-.212l.766-1.064A.522.522,0,0,0,22.93,24.927Z"/><path class="cls-2" d="M18.925,23.781a.508.508,0,0,0-.71-.234c-.34.151-.458,1.316-.964,1.371a.869.869,0,0,0,.837.079C18.471,24.837,18.516,24,18.925,23.781Z"/><circle class="cls-3" cx="12" cy="11" r="11"/><path class="cls-4" d="M14.182,9.662l.22-1.977a5.627,5.627,0,0,0-6.224,6.224l1.977-.22a3.64,3.64,0,0,1,4.027-4.027M8.853,8.36a6.947,6.947,0,0,1,5.7-1.992l.219-1.977a8.937,8.937,0,0,0-9.883,9.884l1.976-.219a6.952,6.952,0,0,1,1.993-5.7m6.334,3.519a1.991,1.991,0,1,0,0,2.815,1.989,1.989,0,0,0,0-2.815"/></svg>