<svg xmlns="http://www.w3.org/2000/svg" height="42" width="45" viewBox="0 0 42 45"><defs><style>.cls-1{fill:#0098c3;}.cls-2,.cls-4{fill:#fff;}.cls-3{fill:#63b15a;}.cls-4{fill-rule:evenodd;}</style></defs><title>event_konzerte_digi</title><g id="event"><polygon class="cls-1" points="13.692 13 16.154 37.615 23.539 37.615 26 45 28.462 37.615 35.846 37.615 38.308 13 13.692 13"/><path class="cls-2" d="M23.667,19.3l-.38,8.362-4.281.739c0,.077-.006.154-.006.233s0,2.2.006,2.281l4.661.311.841-8.835,7.338-.458-.232,4.17-4.312.768c0,.077-.006.155-.006.233s0,2.2.006,2.281l4.661.311v-.025L33,18.778Zm.94,2.048.1-1.011,7.259-.518-.06,1.073Z"/></g><g id="digitale_Kirche" data-name="digitale Kirche"><circle class="cls-3" cx="12" cy="11" r="11"/><path class="cls-4" d="M14.182,9.662l.22-1.977a5.627,5.627,0,0,0-6.224,6.224l1.977-.22a3.64,3.64,0,0,1,4.027-4.027M8.853,8.36a6.947,6.947,0,0,1,5.7-1.992l.219-1.977a8.937,8.937,0,0,0-9.883,9.884l1.976-.219a6.952,6.952,0,0,1,1.993-5.7m6.334,3.519a1.991,1.991,0,1,0,0,2.815,1.989,1.989,0,0,0,0-2.815"/></g></svg>