<?xml version="1.0" encoding="UTF-8"?>
<svg width="32px" height="43px" viewBox="0 0 32 43" version="1.1" xmlns="http://www.w3.org/2000/svg" xmlns:xlink="http://www.w3.org/1999/xlink">
    <title>event_digital-konzerte</title>
    <defs>
        <polygon id="path-1" points="0 0 18.6847674 0 18.6847674 16.5973644 0 16.5973644"></polygon>
    </defs>
    <g id="Page-1" stroke="none" stroke-width="1" fill="none" fill-rule="evenodd">
        <g id="event_digital-konzerte" transform="translate(0.000000, -0.000000)">
            <polygon id="Fill-1" fill="#EA3080" fill-rule="nonzero" points="0 0 3.19932266 32.5061484 12.8006773 32.5061484 16 42.2582223 19.2004516 32.5061484 28.7995485 32.5061484 32 0"></polygon>
            <g id="Fill-1-Clipped" transform="translate(5.338696, 6.668876)">
                <mask id="mask-2" fill="white">
                    <use xlink:href="#path-1"></use>
                </mask>
                <g id="path-1"></g>
                <path d="M7.48351662,3.42233363 L7.61164531,2.07388697 L17.3013779,1.38299144 L17.2212974,2.81413217 L7.48351662,3.42233363 Z M6.22758847,0.690762145 L5.72041238,11.8437898 L0.00667336955,12.8294497 C0.00266934783,12.9321504 0,13.0348511 0,13.1402193 C0,13.2442538 0.00266934783,16.078526 0.00667336955,16.1825604 L6.22758847,16.5973645 L7.3513839,4.8134611 L17.1438864,4.20259209 L16.834242,9.76443447 L11.0791281,10.7887738 C11.0764588,10.8914745 11.0724547,10.9955089 11.0724547,11.0995434 C11.0724547,11.2049116 11.0764588,14.03785 11.0791281,14.1418845 L17.3013779,14.5566885 L17.3013779,14.5233442 L18.6854348,-0.000133377514 L6.22758847,0.690762145 Z" id="Fill-1" fill="#FFFFFF" fill-rule="nonzero" mask="url(#mask-2)"></path>
            </g>
        </g>
    </g>
</svg>