<?xml version="1.0" encoding="UTF-8"?>
<svg width="32px" height="39px" viewBox="0 0 32 39" version="1.1" xmlns="http://www.w3.org/2000/svg" xmlns:xlink="http://www.w3.org/1999/xlink">
    <title>geomarker</title>
    <g id="Page-1" stroke="none" stroke-width="1" fill="none" fill-rule="evenodd">
        <g id="geomarker" transform="translate(0.000000, 0.000000)">
            <g id="icon-gottesdienst" transform="translate(11.243243, 11.243243)">
                <polygon id="Fill-1" fill="#006BA6" points="1.77635684e-15 0 2.0731519 21.0780849 8.29480219 21.0780849 10.3679541 27.4016591 12.4418375 21.0780849 18.6620248 21.0780849 20.7359082 0"></polygon>
                <g id="Group" transform="translate(3.891892, 8.648649)" fill="#FFFFFF">
                    <circle id="Oval" cx="1.2972973" cy="1.2972973" r="1.2972973"></circle>
                    <circle id="Oval-Copy" cx="11.6756757" cy="1.2972973" r="1.2972973"></circle>
                    <circle id="Oval-Copy" cx="6.48648649" cy="1.2972973" r="1.2972973"></circle>
                </g>
            </g>
            <g id="flag-digital-on">
                <path d="M18.8222892,9.41155959 C18.8222892,14.6091243 14.6091243,18.8222892 9.41072958,18.8222892 C4.21316487,18.8222892 0,14.6091243 0,9.41155959 C0,4.21316487 4.21316487,0 9.41072958,0 C14.6091243,0 18.8222892,4.21316487 18.8222892,9.41155959" id="Fill-6" fill="#EA3080"></path>
                <path d="M12.0070219,10.0163098 C11.3380284,9.3473163 10.2540266,9.3473163 9.58503309,10.0163098 C8.91603961,10.6853033 8.91603961,11.7693051 9.58503309,12.4382986 C10.2540266,13.107292 11.3380284,13.107292 12.0070219,12.4382986 C12.6760154,11.7693051 12.6760154,10.6853033 12.0070219,10.0163098 M6.55796211,6.9892388 C7.89428903,5.65208186 9.70953559,5.08352041 11.4575508,5.27608428 L11.6459646,3.57538002 C9.39910934,3.32803504 7.06510232,4.05927977 5.34696771,5.7782444 C3.62717307,7.49720903 2.89675835,9.83121605 3.14410334,12.0772413 L4.84397758,11.8888275 C4.65224372,10.1408123 5.22080517,8.32556571 6.55796211,6.9892388 M11.1421445,8.10976137 L11.3313883,6.40905711 C9.91620976,6.25384398 8.44708016,6.71367324 7.36473836,7.79601505 C6.28322657,8.87835685 5.82256729,10.3483165 5.97778042,11.762665 L7.67848468,11.5734211 C7.57805266,10.6579127 7.87519864,9.70754355 8.57573275,9.00700944 C9.27626687,8.30647533 10.226636,8.00932934 11.1421445,8.10976137" id="Fill-8" fill="#FFFFFF"></path>
            </g>
        </g>
    </g>
</svg>