<svg xmlns="http://www.w3.org/2000/svg" height="32" width="32" viewBox="0 0 32 32"><defs><style>.cls-1{fill:#5a1464;}.cls-2{fill:#fff;}</style></defs><g><polygon class="cls-1" points="3.69 0 6.15 24.61 13.54 24.61 16 32 18.46 24.61 25.85 24.61 28.31 0 3.69 0"/><path class="cls-2" d="M12.31,6h0a1.23,1.23,0,0,1,1.23,1.23v3.69a0,0,0,0,1,0,0H11.08a0,0,0,0,1,0,0V7.19A1.23,1.23,0,0,1,12.31,6Z"/><circle class="cls-2" cx="12.31" cy="4.73" r="1.23"/><path class="cls-2" d="M16,6h0a1.23,1.23,0,0,1,1.23,1.23v3.69a0,0,0,0,1,0,0H14.77a0,0,0,0,1,0,0V7.19A1.23,1.23,0,0,1,16,6Z"/><circle class="cls-2" cx="16" cy="4.73" r="1.23"/><path class="cls-2" d="M19.69,6h0a1.23,1.23,0,0,1,1.23,1.23v3.69a0,0,0,0,1,0,0H18.46a0,0,0,0,1,0,0V7.19A1.23,1.23,0,0,1,19.69,6Z"/><circle class="cls-2" cx="19.69" cy="4.73" r="1.23"/><path class="cls-2" d="M10.46,14.58h0a1.23,1.23,0,0,1,1.23,1.23V19.5a0,0,0,0,1,0,0H9.23a0,0,0,0,1,0,0V15.81A1.23,1.23,0,0,1,10.46,14.58Z"/><circle class="cls-2" cx="10.46" cy="13.35" r="1.23"/><path class="cls-2" d="M14.15,14.58h0a1.23,1.23,0,0,1,1.23,1.23V19.5a0,0,0,0,1,0,0H12.92a0,0,0,0,1,0,0V15.81A1.23,1.23,0,0,1,14.15,14.58Z"/><circle class="cls-2" cx="14.15" cy="13.35" r="1.23"/><path class="cls-2" d="M17.85,14.58h0a1.23,1.23,0,0,1,1.23,1.23V19.5a0,0,0,0,1,0,0H16.62a0,0,0,0,1,0,0V15.81a1.23,1.23,0,0,1,1.23-1.23Z"/><circle class="cls-2" cx="17.85" cy="13.35" r="1.23"/><path class="cls-2" d="M21.54,14.58h0a1.23,1.23,0,0,1,1.23,1.23V19.5a0,0,0,0,1,0,0H20.31a0,0,0,0,1,0,0V15.81A1.23,1.23,0,0,1,21.54,14.58Z"/><circle class="cls-2" cx="21.54" cy="13.35" r="1.23"/></g></svg>