<svg xmlns="http://www.w3.org/2000/svg" height="32" width="32" viewBox="0 0 32 32"><defs><style>.cls-1{fill:#006ba6;}.cls-2{fill:#fff;}</style></defs><g><polygon class="cls-1" points="3.69 0 6.15 24.61 13.54 24.61 16 32 18.46 24.61 25.85 24.61 28.31 0 3.69 0"/><path class="cls-2" d="M16,4.27A7.73,7.73,0,1,1,8.27,12,7.74,7.74,0,0,1,16,4.27M16,3a9,9,0,1,0,9,9,9,9,0,0,0-9-9Z"/><polygon class="cls-2" points="15.28 11.88 15.28 10.44 13.84 6.12 12.4 10.44 12.4 16.2 19.6 16.2 19.6 13.18 19 11.88 15.28 11.88"/></g></svg>