<svg xmlns="http://www.w3.org/2000/svg" height="32" width="32" viewBox="0 0 32 32"><defs><style>.cls-1{fill:#006ba6;}.cls-2{fill:#fff;}</style></defs><g><polygon class="cls-1" points="3.69 0 6.15 24.61 13.54 24.61 16 32 18.46 24.61 25.85 24.61 28.31 0 3.69 0"/><path class="cls-2" d="M16.23,8.28A2.14,2.14,0,1,0,14.1,6.14,2.14,2.14,0,0,0,16.23,8.28Zm5.95-.84a1,1,0,0,0-1.45.24L19.58,9.28l-3.2-.43a1,1,0,0,0-.31,0l-3.21.53a1,1,0,0,0-.4.16l-1.6,1.07A1,1,0,1,0,12,12.34l1.42-.95.68-.11V15.1l-.81,1-1.4-.7A1,1,0,0,0,11,17.22l2.14,1.07A1,1,0,0,0,14.36,18l2-2.43,1.39,1.11-.41,2.05A1,1,0,0,0,18.17,20l.2,0a1,1,0,0,0,1-.83l.53-2.67a1,1,0,0,0-.37-1l-1.18-.95V11.21l1.54.21a1,1,0,0,0,1-.42l1.52-2.12A1,1,0,0,0,22.18,7.43Z"/></g></svg>