<svg xmlns="http://www.w3.org/2000/svg" height="32" width="32" viewBox="0 0 32 32"><defs><style>.cls-1{fill:#3cb68b;}.cls-2{fill:#fff;}</style></defs><g><polygon class="cls-1" points="3.69 0 6.15 24.61 13.54 24.61 16 32 18.46 24.61 25.85 24.61 28.31 0 3.69 0"/><path class="cls-2" d="M16,3a9,9,0,1,0,9,9A9,9,0,0,0,16,3Zm4.5,9.94-1.65.25L20,14.36l2.29.85-1.8,2.14-.15.95-.95-.15-2.59,1-.1-2.44L16,15.26l-.75,1.49-.1,2.44-2.59-1-.95.15-.15-.95-1.8-2.14L12,14.36l1.19-1.17-1.65-.25-2.35.66.19-2.79L8.91,10l.85-.44,1.48-2.37,1.52,1.92,1.48.77L14,8.2l-1.36-2,2.71-.68L16,4.81l.68.68,2.71.68L18,8.2l-.27,1.65,1.48-.77,1.52-1.92,1.48,2.37.85.44-.44.85.19,2.79Z"/></g></svg>