<svg xmlns="http://www.w3.org/2000/svg" height="32" width="32" viewBox="0 0 32 32"><defs><style>.cls-1{fill:#009fe3;}.cls-2{fill:#fff;}</style></defs><g><polygon class="cls-1" points="3.69 0 6.15 24.61 13.54 24.61 16 32 18.46 24.61 25.85 24.61 28.31 0 3.69 0"/><path class="cls-2" d="M9,19h6.36V12.64H9Zm7.64,0H23V12.64H16.64Zm3.82-9.55a1.91,1.91,0,1,0-3.82,0v1.91h1.91A1.91,1.91,0,0,0,20.45,9.45Zm-7-1.91a1.91,1.91,0,1,0,0,3.82h1.91V9.45A1.91,1.91,0,0,0,13.45,7.55ZM16.64,5V6.92a3.15,3.15,0,0,1,1.91-.65,3.18,3.18,0,0,1,2.54,5.09H23V5ZM9,11.36h1.92a3.17,3.17,0,0,1,4.45-4.44V5H9Z"/></g></svg>