<svg xmlns="http://www.w3.org/2000/svg" height="32" width="32" viewBox="0 0 32 32"><defs><style>.cls-1{fill:#006ba6;}.cls-2{fill:#fff;}</style></defs><g><polygon class="cls-1" points="3.69 0 6.15 24.61 13.54 24.61 16 32 18.46 24.61 25.85 24.61 28.31 0 3.69 0"/><polygon class="cls-2" points="15.28 10.32 15.28 8.88 13.84 4.56 12.4 8.88 12.4 14.64 19.6 14.64 19.6 11.67 19 10.32 15.28 10.32"/><polygon class="cls-2" points="14.8 17.64 13 15.84 11.2 17.64 11.2 19.44 14.8 19.44 14.8 17.64"/><polygon class="cls-2" points="10.6 11.64 8.8 9.84 7 11.64 7 13.44 10.6 13.44 10.6 11.64"/><polygon class="cls-2" points="25 11.64 23.2 9.84 21.4 11.64 21.4 13.44 25 13.44 25 11.64"/><polygon class="cls-2" points="20.8 17.64 19 15.84 17.2 17.64 17.2 19.44 20.8 19.44 20.8 17.64"/><polygon class="cls-2" points="20.8 6.84 19 5.04 17.2 6.84 17.2 8.64 20.8 8.64 20.8 6.84"/></g></svg>