<svg xmlns="http://www.w3.org/2000/svg" height="32" width="32" viewBox="0 0 32 32"><defs><style>.cls-1{fill:#006ba6;}.cls-2{fill:#fff;}</style></defs><g><polygon class="cls-1" points="3.69 0 6.15 24.61 13.54 24.61 16 32 18.46 24.61 25.85 24.61 28.31 0 3.69 0"/><path class="cls-2" d="M21.4,12.29H14.71V9.71L12.14,2,9.57,9.71V20h1.54V17.94c0-.85,1-1.54,1-1.54s1,.69,1,1.54h0V20h9.26V14.86ZM16.26,19h-1V15.89a.51.51,0,1,1,1,0h0Zm2.06,0h-1V15.89a.51.51,0,1,1,1,0h0Zm2.06,0h-1V15.89a.51.51,0,1,1,1,0h0Z"/></g></svg>