<svg xmlns="http://www.w3.org/2000/svg" height="32" width="32" viewBox="0 0 32 32"><defs><style>.cls-1{fill:#5a1464;}.cls-2{fill:#fff;}</style></defs><g><polygon class="cls-1" points="3.69 0 6.15 24.61 13.54 24.61 16 32 18.46 24.61 25.85 24.61 28.31 0 3.69 0"/><path class="cls-2" d="M19.21,8.14h0c0-.58-.79-1.07-1.91-1.29l.62,1.7L16.71,9,16,7l-.71,2-1.21-.44.62-1.7c-1.12.22-1.91.72-1.91,1.29L11.5,14.57l1.28.64V21h6.43V15.21l1.29-.64Zm-1.77,3.21h-1v1.93h-1V11.36h-1v-1h1v-1h1v1h1ZM16,6.86a1.79,1.79,0,0,0,1.61-1.93C17.61,3.86,17.29,3,16,3s-1.61.86-1.61,1.93A1.79,1.79,0,0,0,16,6.86Z"/></g></svg>