<svg xmlns="http://www.w3.org/2000/svg" width="32" height="32" viewBox="0 0 32 32">
  <g transform="translate(4)">
    <path d="M22.8564211 29.2771368L20.5352421 31.5983158C20.288 31.8455579 19.9279158 31.9375158 19.5917474 31.8405053 18.1264842 31.4177684 13.9051789 29.7753263 8.00404211 23.8745263 2.10290526 17.9733895.4608 13.7520842.0380631579 12.2871579-.0589473684 11.9506526.0330105263 11.5905684.280589474 11.3433263L2.60143158 9.02214737C2.97498947 8.64858947 3.58063158 8.64858947 3.95418947 9.02214737L8.67772632 13.7460211C9.05162105 14.1192421 9.05162105 14.7252211 8.67772632 15.0984421L8.00404211 15.7724632C8.00404211 15.7724632 6.21103158 16.6802526 10.7048421 21.1737263 15.1986526 25.6675368 16.1061053 23.8745263 16.1061053 23.8745263L16.7797895 23.2008421C17.1533474 22.8272842 17.7589895 22.8272842 18.1328842 23.2008421L22.8564211 27.9240421C23.2296421 28.2979368 23.2296421 28.9035789 22.8564211 29.2771368M11.5682695 4.02219789C11.2122274 4.02219789 10.9225432 4.31188211 10.9225432 4.66792421 10.9225432 5.02430316 11.2122274 5.31398737 11.5682695 5.31398737 11.9243116 5.31398737 12.2139958 5.02430316 12.2139958 4.66792421 12.2139958 4.31188211 11.9243116 4.02219789 11.5682695 4.02219789M14.4327411 4.02219789C14.0766989 4.02219789 13.7870147 4.31188211 13.7870147 4.66792421 13.7870147 5.02430316 14.0766989 5.31398737 14.4327411 5.31398737 14.7887832 5.31398737 15.0784674 5.02430316 15.0784674 4.66792421 15.0784674 4.31188211 14.7887832 4.02219789 14.4327411 4.02219789M14.1656253 8.15410526C14.1369937 8.15410526 14.1083621 8.1504 14.0793937 8.14298947 13.4380463 7.97423158 12.6208674 7.97086316 11.9707621 8.13524211 11.7908884 8.17970526 11.6073095 8.07157895 11.5618358 7.89136842 11.5160253 7.71115789 11.6251621 7.52791579 11.8057095 7.48210526 12.5636042 7.29077895 13.5006989 7.29381053 14.2511832 7.49153684 14.4310568 7.53903158 14.5381726 7.72328421 14.4910147 7.90315789 14.4512674 8.05406316 14.3148463 8.15410526 14.1656253 8.15410526"/>
    <path d="M13.0004884,-0.000168421053 C9.90019368,-0.000168421053 7.37758316,2.52244211 7.37758316,5.62273684 C7.37758316,6.64774737 7.65177263,7.632 8.17522526,8.5024 L6.63787789,10.8080842 L7.81514105,11.9853474 L10.1208253,10.4483368 C10.9912253,10.9717895 11.9754779,11.2459789 13.0004884,11.2459789 C16.10112,11.2459789 18.6233937,8.72336842 18.6233937,5.62273684 C18.6233937,2.52244211 16.10112,-0.000168421053 13.0004884,-0.000168421053 M13.0004884,0.849010526 C15.6372884,0.849010526 17.7745516,2.98627368 17.7745516,5.62273684 C17.7745516,8.25953684 15.6372884,10.3968 13.0004884,10.3968 C11.9185516,10.3968 10.9241937,10.0330105 10.12352,9.42635789 L7.34423579,11.2789895 L9.19720421,8.49970526 C8.59055158,7.69936842 8.22642526,6.70467368 8.22642526,5.62273684 C8.22642526,2.98627368 10.3636884,0.849010526 13.0004884,0.849010526"/>
  </g>
</svg>
