<svg xmlns="http://www.w3.org/2000/svg" width="32" height="32" viewBox="0 0 32 32">
  <g transform="translate(4)">
    <path d="M14.4591495 4.05248C13.9548968 4.05248 13.5746021 4.27883789 13.5746021 4.57896421 13.5746021 4.87909053 13.9548968 5.10544842 14.4591495 5.10544842 14.9634021 5.10544842 15.3436968 4.87909053 15.3436968 4.57896421 15.3436968 4.27883789 14.9634021 4.05248 14.4591495 4.05248M11.5946442 4.05248C11.0903916 4.05248 10.7100968 4.27883789 10.7100968 4.57896421 10.7100968 4.87909053 11.0903916 5.10544842 11.5946442 5.10544842 12.0988968 5.10544842 12.4791916 4.87909053 12.4791916 4.57896421 12.4791916 4.27883789 12.0988968 4.05248 11.5946442 4.05248M22.8563537 29.2771368L20.5351747 31.5983158C20.2879326 31.8455579 19.9278484 31.9375158 19.59168 31.8405053 18.1264168 31.4177684 13.9051116 29.7753263 8.00397474 23.8745263 2.10283789 17.9733895.460732632 13.7520842.0379957895 12.2871579-.0590147368 11.9506526.0329431579 11.5905684.280522105 11.3433263L2.60136421 9.02214737C2.97492211 8.64858947 3.58056421 8.64858947 3.95412211 9.02214737L8.67799579 13.7460211C9.05155368 14.1192421 9.05155368 14.7252211 8.67799579 15.0984421L8.00397474 15.7724632C8.00397474 15.7724632 6.21096421 16.6802526 10.7047747 21.1737263 15.1985853 25.6675368 16.1060379 23.8745263 16.1060379 23.8745263L16.7797221 23.2008421C17.15328 22.8272842 17.7592589 22.8272842 18.1328168 23.2008421L22.8563537 27.9240421C23.2299116 28.2979368 23.2299116 28.9035789 22.8563537 29.2771368M14.8583411 7.90477474C14.8317305 7.87715368 14.1694989 7.19605895 13.0269305 7.19605895 11.8705516 7.19605895 11.2009095 7.89062737 11.1941726 7.89770105L10.7044042 7.43488C10.7397726 7.39749053 11.5835621 6.52237474 13.0269305 6.52237474 14.4716463 6.52237474 15.3150989 7.40692211 15.3504674 7.44498526L14.8583411 7.90477474z"/>
    <path d="M13.0004211,-0.000168421053 C9.89978947,-0.000168421053 7.37751579,2.52244211 7.37751579,5.62273684 C7.37751579,6.64774737 7.65170526,7.632 8.17515789,8.5024 L6.63814737,10.8080842 L7.81507368,11.9853474 L10.1207579,10.4483368 C10.9914947,10.9717895 11.9757474,11.2459789 13.0004211,11.2459789 C16.1010526,11.2459789 18.6233263,8.72336842 18.6233263,5.62273684 C18.6233263,2.52244211 16.1010526,-0.000168421053 13.0004211,-0.000168421053 M13.0004211,0.849010526 C15.6372211,0.849010526 17.7744842,2.98627368 17.7744842,5.62273684 C17.7744842,8.25953684 15.6372211,10.3968 13.0004211,10.3968 C11.9184842,10.3968 10.9241263,10.0330105 10.1234526,9.42635789 L7.34416842,11.2789895 L9.19713684,8.49970526 C8.59048421,7.69936842 8.22635789,6.70467368 8.22635789,5.62273684 C8.22635789,2.98627368 10.3636211,0.849010526 13.0004211,0.849010526"/>
  </g>
</svg>
