<svg xmlns="http://www.w3.org/2000/svg" viewBox="0 0 32 32"><path d="M12.1,12.13l2.15-1.43a5.16,5.16,0,0,0,2.68.74A5.22,5.22,0,1,0,11.7,6.22a5.16,5.16,0,0,0,.74,2.68L11,11Zm.39-5.91a4.45,4.45,0,1,1,1.76,3.53l-2.58,1.72,1.72-2.58A4.41,4.41,0,0,1,12.48,6.22Zm14,21.11L22.1,22.93a.89.89,0,0,0-1.26,0l-.63.63s-.84,1.67-5-2.51-2.51-5-2.51-5l.63-.63a.89.89,0,0,0,0-1.26L8.92,9.76a.89.89,0,0,0-1.26,0L5.51,11.91a.89.89,0,0,0-.23.88c.39,1.36,1.92,5.29,7.4,10.77s9.41,7,10.77,7.4a.89.89,0,0,0,.88-.23l2.16-2.16A.89.89,0,0,0,26.49,27.32ZM18.32,5.81a.6.6,0,1,0-.6-.6A.6.6,0,0,0,18.32,5.81ZM15.5,8.55a3.29,3.29,0,0,1,3,0l.3-.55a3.93,3.93,0,0,0-3.61,0Zm.16-2.74a.6.6,0,1,0-.6-.6A.6.6,0,0,0,15.66,5.81Z"/></svg>