<svg xmlns="http://www.w3.org/2000/svg" viewBox="0 0 32 32"><g id="Ebene_3" data-name="Ebene 3"><rect x="11" y="11" width="2" height="2"/><rect x="15" y="11" width="2" height="2"/><rect x="19" y="11" width="2" height="2"/><rect x="23" y="11" width="2" height="2"/><rect x="3" y="15" width="2" height="2"/><rect x="7" y="15" width="2" height="2"/><rect x="11" y="15" width="2" height="2"/><rect x="15" y="15" width="2" height="2"/><rect x="19" y="15" width="2" height="2"/><rect x="23" y="15" width="2" height="2"/><rect x="27" y="11" width="2" height="2"/><rect x="27" y="15" width="2" height="2"/><rect x="19" y="19" width="2" height="2"/><rect x="23" y="19" width="2" height="2"/><rect x="27" y="19" width="2" height="2"/><rect x="3" y="19" width="2" height="2"/><rect x="7" y="19" width="2" height="2"/><rect x="11" y="19" width="2" height="2"/><rect x="15" y="19" width="2" height="2"/><rect x="3" y="23" width="2" height="2"/><rect x="7" y="23" width="2" height="2"/><rect x="11" y="23" width="2" height="2"/><rect x="15" y="23" width="2" height="2"/><rect x="19" y="23" width="2" height="2"/><path d="M0,4V28H32V4ZM31,27H1V9H31Z"/></g></svg>