<svg xmlns="http://www.w3.org/2000/svg" viewBox="0 0 32 32"><path d="M12.1,12.13l2.15-1.43a5.16,5.16,0,0,0,2.68.74A5.22,5.22,0,1,0,11.7,6.22a5.16,5.16,0,0,0,.74,2.68L11,11Zm.39-5.91a4.45,4.45,0,1,1,1.76,3.53l-2.58,1.72,1.72-2.58A4.41,4.41,0,0,1,12.48,6.22Zm14,21.11L22.1,22.93a.89.89,0,0,0-1.26,0l-.63.63s-.84,1.67-5-2.51-2.51-5-2.51-5l.63-.63a.89.89,0,0,0,0-1.26L8.92,9.76a.89.89,0,0,0-1.26,0L5.51,11.91a.89.89,0,0,0-.23.88c.39,1.36,1.92,5.29,7.4,10.77s9.41,7,10.77,7.4a.89.89,0,0,0,.88-.23l2.16-2.16A.89.89,0,0,0,26.49,27.32ZM17.06,7.89H16.4c-.13,0-.18.05-.18.19v.61c0,.13.05.19.18.19h.66c.13,0,.17-.05.17-.19V8.07C17.23,7.94,17.19,7.89,17.06,7.89ZM15.39,5.3H16c.13,0,.17-.05.17-.19V4.82q0-.56.74-.56c.49,0,.74.19.74.56V5a.48.48,0,0,1-.28.46l-.69.35a.68.68,0,0,0-.47.67V7c0,.13.05.18.18.18h.66c.13,0,.17,0,.17-.18V6.79c0-.24.1-.32.31-.42L18,6.17A1.16,1.16,0,0,0,18.67,5V4.66c0-.63-.44-1.22-1.74-1.22S15.2,4,15.2,4.66v.46C15.2,5.25,15.26,5.3,15.39,5.3Z"/></svg>