<svg xmlns="http://www.w3.org/2000/svg" viewBox="0 0 32 32"><defs><style>.cls-1{fill:#9a135a;}.cls-2{fill:#00b4dc;}</style></defs><path id="sonntage" class="cls-1" d="M27,14h2V12H27Zm0-8V8h2V6Zm0,12h2V16H27Zm0,4h2V20H27Z"/><path id="wochentage" class="cls-2" d="M11,14h2V12H11Zm4,0h2V12H15Zm4,0h2V12H19Zm4,0h2V12H23ZM3,8H5V6H3ZM7,8H9V6H7Zm4,0h2V6H11Zm4,0h2V6H15Zm4,0h2V6H19Zm4-2V8h2V6ZM3,18H5V16H3Zm4,0H9V16H7Zm4,0h2V16H11Zm4,0h2V16H15Zm4,0h2V16H19Zm4,0h2V16H23Zm-4,4h2V20H19Zm4,0h2V20H23ZM3,22H5V20H3Zm4,0H9V20H7Zm4,0h2V20H11Zm4,0h2V20H15ZM3,26H5V24H3Zm4,0H9V24H7Zm4,0h2V24H11Zm4,0h2V24H15Zm4,0h2V24H19Z"/></svg>