<svg xmlns="http://www.w3.org/2000/svg" viewBox="0 0 32 32"><path d="M25.21,6.74A12.95,12.95,0,0,0,4.84,22.35L3,29.06l6.86-1.8A12.94,12.94,0,0,0,16,28.83h0a12.95,12.95,0,0,0,9.16-22.1M16.05,26.65h0a10.75,10.75,0,0,1-5.48-1.5l-.39-.23L6.11,26,7.2,22l-.26-.41a10.76,10.76,0,1,1,9.12,5M22,18.59c-.32-.16-1.91-.94-2.21-1.05s-.51-.16-.73.16-.84,1.05-1,1.27-.38.24-.7.08a8.84,8.84,0,0,1-2.6-1.6,9.75,9.75,0,0,1-1.8-2.24c-.19-.32,0-.5.14-.66s.32-.38.49-.57a2.21,2.21,0,0,0,.32-.54.6.6,0,0,0,0-.57c-.08-.16-.73-1.75-1-2.4s-.53-.55-.73-.56h-.62a1.19,1.19,0,0,0-.86.4A3.63,3.63,0,0,0,9.48,13a6.29,6.29,0,0,0,1.32,3.35,14.42,14.42,0,0,0,5.53,4.88,18.63,18.63,0,0,0,1.84.68,4.44,4.44,0,0,0,2,.13,3.33,3.33,0,0,0,2.18-1.54A2.7,2.7,0,0,0,22.58,19c-.08-.13-.3-.22-.62-.38"/></svg>
