<svg xmlns="http://www.w3.org/2000/svg" viewBox="0 0 32 32"><path d="M26.49,8.91a12.62,12.62,0,0,1-3.1.83h0a5.57,5.57,0,0,0,2.38-3,11.89,11.89,0,0,1-3.45,1.33h0A5.45,5.45,0,0,0,13,13h0A15.49,15.49,0,0,1,1.83,7.34a5.47,5.47,0,0,0,1.64,7.24,5.3,5.3,0,0,1-2.4-.65A5.39,5.39,0,0,0,5.4,19.3,5.48,5.48,0,0,1,3,19.41,5.4,5.4,0,0,0,8,23.2a11.16,11.16,0,0,1-8,2.23c10.88,6.47,23.76-.57,23.79-13.55,0,0,0-.06,0-.09s0-.05,0-.08v0A11.67,11.67,0,0,0,26.49,8.91Z"/><path d="M30,1.12a2.14,2.14,0,0,0-.16,1.38c-.36.46-.71.93-1.07,1.4a1.75,1.75,0,0,0-.11-.78A2.44,2.44,0,0,0,27.36,2a2.44,2.44,0,0,0-.12,1.74,2.19,2.19,0,0,0,1,1,9.76,9.76,0,0,0-.49.92l-.34.81a2.11,2.11,0,0,0-.34-1,2.82,2.82,0,0,0-1.78-1,2.82,2.82,0,0,0,.29,2,2.58,2.58,0,0,0,1.51.92l0,.09L27,8l-.06.24,0,.25-.12,1h0a2.27,2.27,0,0,0-.81-1,2.82,2.82,0,0,0-2-.21A2.82,2.82,0,0,0,25,10a2.63,2.63,0,0,0,1.79.26,8.84,8.84,0,0,0,.33,2,2.08,2.08,0,0,0-.81-.59,2.82,2.82,0,0,0-2,.2,2.82,2.82,0,0,0,1.37,1.49,2.62,2.62,0,0,0,1.8-.11l.09.21a6.57,6.57,0,0,0,2.65,3l.3-.39A14.31,14.31,0,0,1,28.59,13a7.74,7.74,0,0,1-.35-.94,2.52,2.52,0,0,0,1.54-.68,2.82,2.82,0,0,0,.57-1.94,2.82,2.82,0,0,0-1.9.71A2.06,2.06,0,0,0,28,11a9,9,0,0,1-.13-1.46c0-.19,0-.38,0-.57a2.48,2.48,0,0,0,1.61,0,2.82,2.82,0,0,0,1.32-1.54,2.82,2.82,0,0,0-2-.13,2,2,0,0,0-.74.57,12.11,12.11,0,0,1,.41-1.48A2.29,2.29,0,0,0,30,6.51a2.59,2.59,0,0,0,1.32-1.3,2.59,2.59,0,0,0-1.83-.27A1.7,1.7,0,0,0,29,5.2l0,0,.39-.85.11-.19a1.93,1.93,0,0,0,1.22.3A2.18,2.18,0,0,0,32,3.51,2.18,2.18,0,0,0,30.51,3a1.45,1.45,0,0,0-.46.16l.25-.44a2.16,2.16,0,0,0,1.09-.88A2.44,2.44,0,0,0,31.47.13,2.44,2.44,0,0,0,30,1.12Z"/></svg>
