<svg xmlns="http://www.w3.org/2000/svg" viewBox="0 0 32 32">
<path d="M23.5,16h-10v-2.5L9.75,6L6,13.5V26h2.78v-2.53c0-0.54,0.44-0.97,0.98-0.97c0.54,0,0.97,0.44,0.97,0.97V26H26
	v-7.5L23.5,16z M15,24.5h-1.5v-4.25c0-0.41,0.34-0.75,0.75-0.75c0.41,0,0.75,0.34,0.75,0.75V24.5z M18,24.5h-1.5l0-4.25
	c0-0.41,0.34-0.75,0.75-0.75c0.41,0,0.75,0.34,0.75,0.75V24.5z M21,24.5h-1.5l0-4.25c0-0.41,0.34-0.75,0.75-0.75
	c0.41,0,0.75,0.34,0.75,0.75V24.5z M24,24.5h-1.5l0-4.25c0-0.41,0.34-0.75,0.75-0.75c0.41,0,0.75,0.34,0.75,0.75V24.5z"/>
</svg>
