<svg xmlns="http://www.w3.org/2000/svg" viewBox="0 0 32 32"><path d="M11,13.56a8.45,8.45,0,0,1-3.37.52v.49H7.9A8.69,8.69,0,0,0,11.22,14a9.14,9.14,0,0,1,3.38-.77v-.49h0A9.57,9.57,0,0,0,11,13.56Zm0-1.4a8.43,8.43,0,0,1-3.37.52v.49h.26a8.69,8.69,0,0,0,3.31-.56,9.07,9.07,0,0,1,3.36-.77h0v-.49h0A9.58,9.58,0,0,0,11,12.16Zm-3.37-.88v.49h.26a8.69,8.69,0,0,0,3.31-.56,9.07,9.07,0,0,1,3.36-.78h0V9.94h0a9.57,9.57,0,0,0-3.56.81A8.45,8.45,0,0,1,7.66,11.27Zm0,7v.49H7.9a8.69,8.69,0,0,0,3.31-.56,9.07,9.07,0,0,1,3.36-.77h0v-.49a9.7,9.7,0,0,0-3.57.81A8.43,8.43,0,0,1,7.65,18.27ZM11,16.36a8.44,8.44,0,0,1-3.37.52v.49H7.9a8.69,8.69,0,0,0,3.31-.56A9.09,9.09,0,0,1,14.59,16v-.49h0A9.58,9.58,0,0,0,11,16.36ZM11,15a8.43,8.43,0,0,1-3.37.52V16H7.9a8.69,8.69,0,0,0,3.31-.56,9.21,9.21,0,0,1,3.38-.77v-.49h0A9.58,9.58,0,0,0,11,15Zm0,4.2a8.43,8.43,0,0,1-3.37.52v.49H7.9a8.69,8.69,0,0,0,3.31-.56,9,9,0,0,1,3.38-.77v-.49h0A9.58,9.58,0,0,0,11,19.15Zm10,0a9.58,9.58,0,0,0-3.56-.81h0v.49a9,9,0,0,1,3.38.77,8.69,8.69,0,0,0,3.31.56h.26v-.49A8.43,8.43,0,0,1,21,19.15Zm-3.55-1.72a9.07,9.07,0,0,1,3.36.77,8.69,8.69,0,0,0,3.31.56h.26v-.49A8.43,8.43,0,0,1,21,17.76a9.7,9.7,0,0,0-3.57-.81v.49Zm3.36-.63a8.69,8.69,0,0,0,3.31.56h.26v-.49A8.44,8.44,0,0,1,21,16.36a9.58,9.58,0,0,0-3.56-.81h0V16A9.09,9.09,0,0,1,20.79,16.81Zm-3.37-6.37a9.07,9.07,0,0,1,3.36.78,8.69,8.69,0,0,0,3.31.56h.26v-.49A8.45,8.45,0,0,1,21,10.76a9.57,9.57,0,0,0-3.55-.81h0v.49ZM26,8.91a.25.25,0,0,0-.09-.19.25.25,0,0,0-.2-.06A10.07,10.07,0,0,1,21,8.27c-2.09-.89-4.07-1.08-5-.49-.89-.59-2.88-.4-5,.49a10.07,10.07,0,0,1-4.73.4.25.25,0,0,0-.2.06A.25.25,0,0,0,6,8.91l0,14a.25.25,0,0,0,.2.24A11.47,11.47,0,0,0,8,23.29a8.56,8.56,0,0,0,3.24-.56c2.18-.92,4.05-1,4.6-.46a.25.25,0,0,0,.18.06h0a.25.25,0,0,0,.19-.06,1.94,1.94,0,0,1,1.2-.31v2.61l.7-1.39.7,1.39V22.09a10.65,10.65,0,0,1,2,.63,8.56,8.56,0,0,0,3.24.56,11.47,11.47,0,0,0,1.76-.13.25.25,0,0,0,.2-.24ZM15.73,21.65c-1-.4-2.84-.17-4.71.62a9.73,9.73,0,0,1-4.52.43l0-13.5a10,10,0,0,0,4.71-.47c2.08-.89,3.88-1,4.52-.53Zm5.26.62a9.52,9.52,0,0,0-3.52-.81,3.26,3.26,0,0,0-1.2.19l0-13.45c.64-.43,2.44-.36,4.52.53a10,10,0,0,0,4.71.47l0,13.5A9.73,9.73,0,0,1,21,22.27Zm-.2-6.86A8.69,8.69,0,0,0,24.1,16h.26v-.49A8.43,8.43,0,0,1,21,15a9.58,9.58,0,0,0-3.56-.81h0v.49A9.21,9.21,0,0,1,20.79,15.41Zm-3.37-3.57a9.07,9.07,0,0,1,3.36.77,8.69,8.69,0,0,0,3.31.56h.26v-.49A8.43,8.43,0,0,1,21,12.16a9.58,9.58,0,0,0-3.56-.81h0v.49ZM20.78,14a8.69,8.69,0,0,0,3.31.56h.26v-.49A8.45,8.45,0,0,1,21,13.56a9.57,9.57,0,0,0-3.56-.81h0v.49A9.14,9.14,0,0,1,20.78,14Z"/></svg>